<svg width="26" height="25" viewBox="0 0 26 25" fill="none" xmlns="http://www.w3.org/2000/svg">
<path d="M1 12.5C1 5.87258 6.37258 0.5 13 0.5C19.6274 0.5 25 5.87258 25 12.5C25 19.1274 19.6274 24.5 13 24.5C6.37258 24.5 1 19.1274 1 12.5Z" fill="white"/>
<path d="M1 12.5C1 5.87258 6.37258 0.5 13 0.5C19.6274 0.5 25 5.87258 25 12.5C25 19.1274 19.6274 24.5 13 24.5C6.37258 24.5 1 19.1274 1 12.5Z" stroke="#D0D5DD" stroke-linecap="round" stroke-linejoin="round" stroke-dasharray="1 3"/>
<path d="M12.9999 7.83301V17.1663M8.33325 12.4997H17.6666" stroke="#98A2B3" stroke-width="1.33333" stroke-linecap="round" stroke-linejoin="round"/>
</svg>
