<svg width="18" height="17" viewBox="0 0 18 17" fill="none" xmlns="http://www.w3.org/2000/svg">
<path d="M8.1665 12.667H9.83317V9.33366H13.1665V7.66699H9.83317V4.33366H8.1665V7.66699H4.83317V9.33366H8.1665V12.667ZM8.99984 16.8337C7.84706 16.8337 6.76373 16.6184 5.74984 16.1878C4.73595 15.7434 3.854 15.1462 3.104 14.3962C2.354 13.6462 1.75678 12.7642 1.31234 11.7503C0.881782 10.7364 0.666504 9.6531 0.666504 8.50033C0.666504 7.34755 0.881782 6.26421 1.31234 5.25033C1.75678 4.23644 2.354 3.35449 3.104 2.60449C3.854 1.85449 4.73595 1.26421 5.74984 0.833658C6.76373 0.389214 7.84706 0.166992 8.99984 0.166992C10.1526 0.166992 11.2359 0.389214 12.2498 0.833658C13.2637 1.26421 14.1457 1.85449 14.8957 2.60449C15.6457 3.35449 16.2359 4.23644 16.6665 5.25033C17.1109 6.26421 17.3332 7.34755 17.3332 8.50033C17.3332 9.6531 17.1109 10.7364 16.6665 11.7503C16.2359 12.7642 15.6457 13.6462 14.8957 14.3962C14.1457 15.1462 13.2637 15.7434 12.2498 16.1878C11.2359 16.6184 10.1526 16.8337 8.99984 16.8337ZM8.99984 15.167C10.8609 15.167 12.4373 14.5212 13.729 13.2295C15.0207 11.9378 15.6665 10.3614 15.6665 8.50033C15.6665 6.63921 15.0207 5.06283 13.729 3.77116C12.4373 2.47949 10.8609 1.83366 8.99984 1.83366C7.13873 1.83366 5.56234 2.47949 4.27067 3.77116C2.979 5.06283 2.33317 6.63921 2.33317 8.50033C2.33317 10.3614 2.979 11.9378 4.27067 13.2295C5.56234 14.5212 7.13873 15.167 8.99984 15.167Z" fill="#60983C"/>
</svg>
