<svg width="73" height="73" viewBox="0 0 73 73" fill="none" xmlns="http://www.w3.org/2000/svg">
<g clip-path="url(#clip0_4094_22478)">
<path d="M66.9194 39.2851C67.3445 37.6978 67.5855 36.0397 67.5855 34.3248C67.5855 23.5823 58.8837 14.8948 48.1554 14.8948C45.3918 14.8948 42.77 15.4758 40.4032 16.5104C38.0223 10.9833 32.5235 7.11426 26.1318 7.11426C17.5435 7.11426 10.585 14.0728 10.585 22.6611C10.585 23.2422 10.6983 23.7807 10.755 24.3476C4.53345 27.2246 0.210938 33.4887 0.210938 40.8015C0.210938 50.8213 8.3316 58.9419 18.3513 58.9419H62.4126C68.1382 58.9419 72.7725 54.3076 72.7725 48.5821C72.7725 44.4721 70.3774 40.9716 66.9194 39.2851ZM41.6787 35.6145V48.5679H31.3189V35.6145H23.5383L36.4917 22.6611L49.4451 35.6145H41.6787Z" fill="#EEEEEE"/>
</g>
<defs>
<clipPath id="clip0_4094_22478">
<rect width="72.5615" height="72.5615" fill="white" transform="translate(0.210693)"/>
</clipPath>
</defs>
</svg>
