<svg width="47" height="54" viewBox="0 0 47 54" fill="none" xmlns="http://www.w3.org/2000/svg">
<path d="M17.4301 38.8191C16.5913 38.8191 15.7059 38.7725 14.8672 38.8191C13.2362 38.9123 12.0712 39.7045 11.512 41.2889C10.6266 43.712 10.58 46.275 10.8596 48.7914C10.9528 49.77 11.1858 50.7019 11.3256 51.6339C11.3722 52.0067 11.4654 52.3795 11.4654 52.7523C11.4654 53.4047 11.1392 53.8241 10.6732 53.9639C10.0674 54.1037 9.64803 53.8241 9.32184 53.3581C9.13544 53.1251 8.99564 52.8455 8.90245 52.5659C7.41127 48.372 7.22487 44.0848 8.76265 39.8909C9.69463 37.3279 11.6984 35.9766 14.3546 35.697C15.2866 35.6038 16.3117 35.6038 17.2437 35.6504C21.3445 35.8368 25.2122 34.8116 28.9401 33.134C31.1303 32.1554 32.8079 30.5244 34.0195 28.4275C35.3243 26.1441 36.3028 23.7209 37.1416 21.2978C39.0522 15.9855 40.9628 10.6265 42.9665 5.36081C43.5257 3.91623 44.3179 2.51825 45.0169 1.16687C45.2033 0.794076 45.5295 0.421282 45.8557 0.141686C45.9955 0.00188813 46.3683 -0.0447112 46.5547 0.0484874C46.7411 0.141686 46.8809 0.467881 46.8809 0.700878C46.8343 1.21347 46.7877 1.72606 46.6013 2.23866C45.7159 5.31421 44.7839 8.38976 43.8519 11.4187C42.6869 15.1001 41.4754 18.7814 40.2638 22.4628C39.4716 24.8859 38.493 27.2159 37.2814 29.4527C35.5573 32.7146 32.9943 35.0912 29.5925 36.4892C25.6782 38.0269 21.6707 39.0521 17.4301 38.8191Z" fill="#FFC032"/>
<path d="M3.264 44.8773C3.264 46.1821 3.264 47.4868 3.264 48.7916C3.264 49.7236 2.93781 50.2828 2.23882 50.4226C1.58643 50.5624 0.934037 50.1896 0.607842 49.3974C0.468044 49.0246 0.328246 48.6052 0.281646 48.2324C-0.230946 43.5725 -0.137747 38.9592 1.35343 34.439C2.23882 31.8295 3.5436 29.4529 5.50077 27.5423C7.87734 25.2124 10.7199 24.327 13.9818 24.8862C15.3798 25.1192 16.7778 25.4454 18.1758 25.5386C19.4806 25.6318 20.7853 25.6318 22.0435 25.4454C24.6065 25.0726 26.4705 23.5814 27.5422 21.2048C28.0548 19.9932 28.4276 18.7817 28.847 17.5235C30.3382 12.6306 31.6896 7.73763 33.5536 3.0311C33.6934 2.7049 33.7866 2.37871 33.973 2.09911C34.1127 1.91272 34.3923 1.72632 34.5787 1.72632C34.7651 1.72632 35.0447 2.00591 35.0913 2.19231C35.2311 2.7515 35.3243 3.31069 35.2777 3.82329C35.0913 5.54746 34.9515 7.22504 34.5787 8.80941C33.6934 12.3976 32.7148 15.9391 31.7362 19.4807C31.5498 20.2262 31.2702 20.9718 30.9906 21.7174C29.1266 26.424 25.4919 28.6607 20.5523 28.9403C18.4088 29.0335 16.3118 28.5675 14.2614 28.1947C13.842 28.1015 13.3761 28.0549 12.9567 27.9617C11.1393 27.6821 9.55491 28.2413 8.20353 29.4529C6.71235 30.7577 5.68717 32.3887 4.94158 34.206C3.86979 36.9554 3.3106 39.798 3.2174 42.6871C3.2174 43.4327 3.2174 44.1317 3.264 44.8773C3.2174 44.8773 3.2174 44.8773 3.264 44.8773Z" fill="#FFC032"/>
</svg>
