<svg width="52" height="52" viewBox="0 0 52 52" fill="none" xmlns="http://www.w3.org/2000/svg">
<path fill-rule="evenodd" clip-rule="evenodd" d="M5.41927 8.66667C5.41927 7.47005 6.38932 6.5 7.58594 6.5H10.8359C12.0326 6.5 13.0026 7.47005 13.0026 8.66667V12.2778L15.1693 15.1667H29.5425C29.3581 14.848 29.2526 14.478 29.2526 14.0833C29.2526 12.8867 30.2227 11.9167 31.4193 11.9167H39.0026C40.1992 11.9167 41.1693 12.8867 41.1693 14.0833C41.1693 15.28 40.1992 16.25 39.0026 16.25H36.9122L35.9316 17.7208L40.0128 33.0251C40.2286 33.8345 39.9585 34.6959 39.319 35.2372C38.6796 35.7784 37.7854 35.9025 37.0227 35.5558L16.2526 26.1148V33.5833C16.2526 34.78 15.2826 35.75 14.0859 35.75C12.8893 35.75 11.9193 34.78 11.9193 33.5833V18.0556L9.1026 14.3C8.82132 13.925 8.66927 13.4688 8.66927 13V10.8333H7.58594C6.38932 10.8333 5.41927 9.86328 5.41927 8.66667ZM16.2526 19.5V21.3549L34.6454 29.7152L31.9213 19.5H16.2526Z" fill="#F56630"/>
<path d="M10.2943 26.7648C6.793 28.2441 4.33594 31.7101 4.33594 35.75C4.33594 41.1348 8.70116 45.5 14.0859 45.5C19.4707 45.5 23.8359 41.1348 23.8359 35.75C23.8359 33.9053 23.3236 32.1803 22.4335 30.7094L17.8776 28.6385V33.5834C17.8776 35.6774 16.18 37.375 14.0859 37.375C11.9919 37.375 10.2943 35.6774 10.2943 33.5834V26.7648Z" fill="#F56630"/>
<path d="M28.1693 35.7499C28.1693 34.9546 28.2645 34.1815 28.4442 33.4414L36.3503 37.0351C37.6849 37.6418 39.2498 37.4246 40.3688 36.4775C41.4879 35.5303 41.9607 34.0229 41.5829 32.6063L39.8735 26.1958C44.3217 27.1008 47.6693 31.0345 47.6693 35.7499C47.6693 41.1347 43.304 45.4999 37.9193 45.4999C32.5345 45.4999 28.1693 41.1347 28.1693 35.7499Z" fill="#F56630"/>
</svg>
