<svg width="30" height="30" viewBox="0 0 30 30" fill="none" xmlns="http://www.w3.org/2000/svg">
<path d="M0 25.6134C0 23.2201 3.10021 21.6691 5.61574 20.7388V20.6948C2.65095 20.5173 0.359249 18.7895 0.359249 16.7506C0.359249 14.3133 3.10021 12.6735 5.61574 12.0528V12.0088C3.23482 11.1665 1.43779 9.30517 1.43779 6.55832C1.43779 2.96841 5.12187 0 9.56986 0C11.6361 0 13.5232 0.620711 14.9164 1.50699L20.8021 0.487923L20.3529 2.74763L15.8603 2.12691L15.8157 2.2597C16.9834 3.23477 17.7027 4.69697 17.7027 6.24797C17.7027 9.79309 14.1533 12.5847 9.43604 12.5847C8.31289 12.5847 7.09973 12.4072 6.38123 12.2744C4.80882 12.5847 3.77569 13.4262 3.77569 14.5341C3.77569 15.7307 5.03346 16.1738 7.50438 16.1738C8.76215 16.1738 11.6377 16.0411 13.2547 16.0411C17.4781 16.0411 19.949 17.9912 19.949 21.27C19.949 26.1893 15.0072 30 7.95364 30C2.65254 30 0.00159467 28.5378 0.00159467 25.6126L0 25.6134ZM16.8926 24.1512C16.8926 21.7139 15.0956 20.65 10.9176 20.5173C9.74988 20.4733 7.77282 20.606 6.29042 20.7828C4.67341 21.4035 3.8195 22.9097 3.8195 24.6383C3.8195 27.2972 6.47044 29.2025 10.3338 29.2025C14.1971 29.2025 16.8934 26.9428 16.8934 24.1504L16.8926 24.1512ZM12.8493 6.55754C12.8493 2.87963 11.9954 0.442351 9.52445 0.442351C7.54739 0.442351 6.46965 2.43649 6.46965 6.24797C6.46965 10.0594 7.5928 12.1864 9.61446 12.1864C11.6361 12.1864 12.8493 10.2362 12.8493 6.55832V6.55754Z" fill="#4C9A2A"/>
<path d="M22.5789 5.87036L22.8322 7.54C23.2552 10.3316 25.4768 12.523 28.307 12.9402L29.9997 13.19L28.307 13.4399C25.4768 13.8571 23.2552 16.0485 22.8322 18.8401L22.5789 20.5097L22.3256 18.8401C21.9027 16.0485 19.6811 13.8571 16.8509 13.4399L15.1582 13.19L16.8509 12.9402C19.6811 12.523 21.9027 10.3316 22.3256 7.54L22.5789 5.87036Z" fill="#4C9A2A"/>
<path d="M24.8085 19.9609L24.9081 20.6186C25.0746 21.7178 25.9492 22.5805 27.0636 22.7447L27.7303 22.8429L27.0636 22.9411C25.9492 23.1053 25.0746 23.9681 24.9081 25.0673L24.8085 25.7249L24.7089 25.0673C24.5424 23.9681 23.6678 23.1053 22.5534 22.9411L21.8867 22.8429L22.5534 22.7447C23.6678 22.5805 24.5424 21.7178 24.7089 20.6186L24.8085 19.9609Z" fill="#4C9A2A"/>
<path d="M27.7306 15.6572L27.8047 16.1483C27.9289 16.9694 28.5821 17.6136 29.4145 17.7362L29.9124 17.8093L29.4145 17.8824C28.5821 18.0049 27.9289 18.6492 27.8047 19.4703L27.7306 19.9614L27.6565 19.4703C27.5323 18.6492 26.8791 18.0049 26.0467 17.8824L25.5488 17.8093L26.0467 17.7362C26.8791 17.6136 27.5323 16.9694 27.6565 16.1483L27.7306 15.6572Z" fill="#4C9A2A"/>
</svg>
