<svg width="15" height="15" viewBox="0 0 15 15" fill="none" xmlns="http://www.w3.org/2000/svg">
<path d="M3.36883 1.50065C3.36883 1.13246 3.07035 0.833984 2.70216 0.833984C2.33397 0.833984 2.0355 1.13246 2.0355 1.50065V3.90065C2.0355 4.26884 2.33397 4.56732 2.70216 4.56732H5.1026C5.47079 4.56732 5.76927 4.26884 5.76927 3.90065C5.76927 3.53246 5.47079 3.23398 5.1026 3.23398H4.30192C5.1937 2.56383 6.3018 2.16732 7.5026 2.16732C10.4481 2.16732 12.8359 4.55513 12.8359 7.50065C12.8359 10.4462 10.4481 12.834 7.5026 12.834C4.55709 12.834 2.16927 10.4462 2.16927 7.50065C2.16927 7.13246 1.87079 6.83398 1.5026 6.83398C1.13441 6.83398 0.835938 7.13246 0.835938 7.50065C0.835938 11.1825 3.82071 14.1673 7.5026 14.1673C11.1845 14.1673 14.1693 11.1825 14.1693 7.50065C14.1693 3.81875 11.1845 0.833984 7.5026 0.833984C5.94096 0.833984 4.50471 1.37129 3.36883 2.27009V1.50065Z" fill="#B73F79"/>
<path d="M7.5026 5.16732C7.5026 4.79913 7.20413 4.50065 6.83594 4.50065C6.46775 4.50065 6.16927 4.79913 6.16927 5.16732V8.50065C6.16927 8.86884 6.46775 9.16732 6.83594 9.16732H8.83594C9.20413 9.16732 9.5026 8.86884 9.5026 8.50065C9.5026 8.13246 9.20413 7.83398 8.83594 7.83398H7.5026V5.16732Z" fill="#B73F79"/>
</svg>
