<svg width="300" height="300" viewBox="0 0 300 300" fill="none" xmlns="http://www.w3.org/2000/svg">
<path d="M69.1562 167.297C69.1562 164.672 72.5156 162.969 75.2344 161.938V161.891C72.0156 161.703 69.5469 159.797 69.5469 157.563C69.5469 155.328 72.5156 153.078 75.2344 152.406V152.359C72.6562 151.437 70.7031 149.391 70.7031 146.375C70.7031 143.359 74.6875 139.172 79.5156 139.172C84.3437 139.172 83.7969 139.859 85.3125 140.828L91.6875 139.703L91.2031 142.187L86.3437 141.5L86.2969 141.641C87.5625 142.719 88.3438 144.312 88.3438 146.016C88.3438 149.906 84.5 152.969 79.3906 152.969C74.2813 152.969 76.8594 152.781 76.0781 152.625C74.375 152.969 73.25 153.891 73.25 155.109C73.25 156.328 74.6094 156.906 77.2969 156.906C79.9844 156.906 81.7812 156.766 83.5312 156.766C88.1094 156.766 90.7813 158.906 90.7813 162.516C90.7813 167.922 85.4219 172.109 77.7812 172.109C70.1406 172.109 69.1719 170.5 69.1719 167.297H69.1562ZM87.4531 165.688C87.4531 163.016 85.5 161.844 80.9844 161.703C79.7187 161.656 77.5781 161.797 75.9688 162C74.2188 162.688 73.2969 164.344 73.2969 166.234C73.2969 169.156 76.1719 171.25 80.3594 171.25C84.5469 171.25 87.4687 168.766 87.4687 165.703L87.4531 165.688ZM83.0781 146.375C83.0781 142.328 82.1563 139.656 79.4844 139.656C76.8125 139.656 76.1719 141.844 76.1719 146.031C76.1719 150.219 77.3906 152.547 79.5781 152.547C81.7656 152.547 83.0781 150.406 83.0781 146.359V146.375Z" fill="#FF71AA"/>
<path d="M92.125 160.345L92.8594 160.298C94.375 160.204 94.75 160.11 94.75 159.517V134.36C94.75 131.392 94.4062 131.001 92.75 130.563L91.6719 130.267L91.7187 130.079L100.281 127.938V159.626C100.281 160.017 100.625 160.157 102.516 160.313L103.141 160.36L103.281 160.657H91.9375L92.0781 160.36L92.125 160.345Z" fill="#FF71AA"/>
<path d="M104.672 160.344L105.406 160.297C106.922 160.203 107.453 160.109 107.453 159.516V145.891C107.453 142.875 107.109 142.437 105.453 142.047L104.328 141.797L104.375 141.609L112.937 139.266V159.609C112.937 160 113.234 160.094 115.422 160.297L115.953 160.344L116.094 160.641H104.516L104.656 160.344H104.672ZM106.438 132.547C106.438 130.984 107.609 129.188 109.891 129.188C112.172 129.188 113.344 130.984 113.344 132.547C113.344 134.109 112.172 135.906 109.891 135.906C107.609 135.906 106.438 134.109 106.438 132.547Z" fill="#FF71AA"/>
<path d="M120.344 155.141L120.594 142.391L116.656 142.344L118.141 139.891L120.562 139.922L120.641 134.688L126 134.734L125.953 139.797L133.25 139.844L132.422 142.187H125.906L125.656 154.5C125.609 157.219 126.672 158.484 129.203 158.484C131.734 158.484 132.312 157.797 133.25 156.969L133.438 157.156C131.25 159.391 128.906 161.141 126.047 161.141C123.188 161.141 120.297 159.25 120.359 155.109L120.344 155.141Z" fill="#FF71AA"/>
<path d="M135.734 133.422C135.734 131.328 135.391 130.937 133.734 130.5L132.609 130.203L132.656 130.016L141.172 127.875V143.641L141.313 143.781C143.266 141.344 145.891 139.359 148.953 139.359C153.766 139.359 157.609 143.687 157.609 149.625C157.609 155.562 151.187 161.312 146.031 161.312C140.875 161.312 141.266 160.578 139.406 159.797H139.359L136 161.641H135.703V133.422H135.734ZM151.594 151.187C151.594 146.266 149.359 142.422 145.656 142.422C141.953 142.422 142.344 143.391 141.172 144.516V156C142.391 158.625 144.672 160.766 146.719 160.766C149.875 160.766 151.578 156.391 151.578 151.172L151.594 151.187Z" fill="#FF71AA"/>
<path d="M171.156 156.984L171.109 156.938C169.062 159.219 166.969 161.125 164.438 161.125C161.906 161.125 159.422 158.891 159.422 156.5C159.422 153.094 162.094 150.703 171.344 148.422L171.391 146.766C171.531 142.672 169.641 140.391 166.531 140.391C163.422 140.391 163.516 141.125 163.516 141.656C163.516 142.187 164.969 143.266 164.969 144.531C164.969 145.797 163.797 147.062 162.141 147.062C160.484 147.062 159.422 146.187 159.422 144.719C159.422 141.609 165.938 139.125 169.984 139.125C174.031 139.125 177.188 141.172 176.938 146.672L176.5 155.766C176.406 157.562 177.188 158.437 178.297 158.437C179.406 158.437 179.75 157.703 180.344 157.031L180.641 157.172C179.562 158.531 177.578 161.156 175.094 161.156C172.609 161.156 171.5 159.594 171.156 156.969V156.984ZM171.063 156.406L171.406 148.953C166.203 150.172 164.844 152.016 164.844 154.5C164.844 156.984 166.109 158 167.813 158C169.516 158 170 157.516 171.078 156.391L171.063 156.406Z" fill="#FF71AA"/>
<path d="M181.578 160.047L181.281 153.969H181.531L182.703 156.062C184.313 159.125 185.969 160.875 188.828 160.875C191.688 160.875 192.969 159.266 192.969 157.031C192.969 154.797 190.781 153.437 187.859 152.312C184.547 151.047 181.672 149.641 181.672 145.844C181.672 142.047 184.938 139.172 189.453 139.172C193.969 139.172 192.813 139.516 194.078 140L195.969 139.516L196.219 145.797L195.969 145.891L192.375 140.734C191.594 140.203 190.625 139.609 189.359 139.609C187.016 139.609 185.703 141.016 185.703 143.203C185.703 145.391 187.891 146.422 190.813 147.531C194.078 148.844 197.281 150.203 197.281 154.25C197.281 158.297 194.453 161.312 188.563 161.312C182.672 161.312 183.359 160.734 181.547 160.047H181.578Z" fill="#FF71AA"/>
<path d="M198.891 154.016C198.891 147.063 204.922 139.078 211.891 139.078C218.859 139.078 217.297 140.641 217.297 143.016C217.297 146.422 212.672 148.313 204.937 149.438C204.594 150.75 204.453 152.109 204.453 153.422C204.453 156.531 205.812 158.234 208.344 158.234C210.875 158.234 212.531 157.156 214.766 153.172L215.156 153.312C212.578 158.422 209.266 161.203 205.672 161.203C202.078 161.203 198.906 158.141 198.906 154L198.891 154.016ZM213.016 142.484C213.016 140.875 212.391 139.703 211.172 139.703C209.953 139.703 209.766 140.094 209.031 140.781C207.469 142.344 205.813 145.547 205.047 148.906L205.141 148.953C209.812 148.078 213.031 146.031 213.031 142.484H213.016Z" fill="#FF71AA"/>
<path d="M223.641 128.953L223.891 130.594C224.297 133.344 226.453 135.5 229.203 135.906L230.844 136.156L229.203 136.406C226.453 136.813 224.297 138.969 223.891 141.719L223.641 143.359L223.391 141.719C222.984 138.969 220.828 136.813 218.078 136.406L216.438 136.156L218.078 135.906C220.828 135.5 222.984 133.344 223.391 130.594L223.641 128.953Z" fill="#FF71AA"/>
</svg>
