<svg width="200" height="155" viewBox="0 0 200 155" fill="none" xmlns="http://www.w3.org/2000/svg">
<path d="M46.1041 66.5312C46.1041 64.7812 48.3437 63.6458 50.1562 62.9583V62.9271C48.0104 62.8021 46.3645 61.5313 46.3645 60.0417C46.3645 58.5521 48.3437 57.0521 50.1562 56.6042V56.5729C48.4375 55.9583 47.1354 54.5937 47.1354 52.5833C47.1354 50.5729 49.7916 47.7812 53.0104 47.7812C56.2291 47.7812 55.8645 48.2396 56.875 48.8854L61.125 48.1354L60.802 49.7917L57.5625 49.3333L57.5312 49.4271C58.375 50.1458 58.8958 51.2083 58.8958 52.3437C58.8958 54.9375 56.3333 56.9792 52.927 56.9792C49.5208 56.9792 51.2395 56.8542 50.7187 56.75C49.5833 56.9792 48.8333 57.5938 48.8333 58.4062C48.8333 59.2188 49.7395 59.6042 51.5312 59.6042C53.3229 59.6042 54.5208 59.5104 55.6875 59.5104C58.7395 59.5104 60.5208 60.9375 60.5208 63.3437C60.5208 66.9479 56.9479 69.7396 51.8541 69.7396C46.7604 69.7396 46.1145 68.6667 46.1145 66.5312H46.1041ZM58.302 65.4583C58.302 63.6771 57 62.8958 53.9895 62.8021C53.1458 62.7708 51.7187 62.8646 50.6458 63C49.4791 63.4583 48.8645 64.5625 48.8645 65.8229C48.8645 67.7708 50.7812 69.1667 53.5729 69.1667C56.3645 69.1667 58.3125 67.5104 58.3125 65.4687L58.302 65.4583ZM55.3854 52.5833C55.3854 49.8854 54.7708 48.1042 52.9895 48.1042C51.2083 48.1042 50.7812 49.5625 50.7812 52.3542C50.7812 55.1458 51.5937 56.6979 53.052 56.6979C54.5104 56.6979 55.3854 55.2708 55.3854 52.5729V52.5833Z" fill="#FF71AA"/>
<path d="M61.4166 61.8962L61.9062 61.8649C62.9166 61.8024 63.1666 61.7399 63.1666 61.3441V44.5732C63.1666 42.5941 62.9374 42.3337 61.8332 42.042L61.1145 41.8441L61.1458 41.7191L66.8541 40.292V61.417C66.8541 61.6774 67.0832 61.7712 68.3437 61.8753L68.7603 61.9066L68.8541 62.1045H61.2916L61.3853 61.9066L61.4166 61.8962Z" fill="#FF71AA"/>
<path d="M69.7812 61.8958L70.2707 61.8646C71.2812 61.8021 71.6353 61.7396 71.6353 61.3438V52.2604C71.6353 50.25 71.4062 49.9583 70.302 49.6979L69.552 49.5313L69.5833 49.4062L75.2916 47.8438V61.4063C75.2916 61.6667 75.4895 61.7292 76.9478 61.8646L77.302 61.8958L77.3958 62.0938H69.677L69.7707 61.8958H69.7812ZM70.9583 43.3646C70.9583 42.3229 71.7395 41.125 73.2603 41.125C74.7812 41.125 75.5624 42.3229 75.5624 43.3646C75.5624 44.4063 74.7812 45.6042 73.2603 45.6042C71.7395 45.6042 70.9583 44.4063 70.9583 43.3646Z" fill="#FF71AA"/>
<path d="M80.2291 58.4272L80.3958 49.9272L77.7708 49.8959L78.7603 48.2605L80.3749 48.2813L80.427 44.7917L83.9999 44.823L83.9687 48.198L88.8333 48.2292L88.2812 49.7917H83.9374L83.7708 58.0001C83.7395 59.8126 84.4478 60.6563 86.1353 60.6563C87.8228 60.6563 88.2083 60.198 88.8333 59.6459L88.9583 59.7709C87.4999 61.2605 85.9374 62.4272 84.0312 62.4272C82.1249 62.4272 80.1978 61.1667 80.2395 58.4063L80.2291 58.4272Z" fill="#FF71AA"/>
<path d="M90.4896 43.9479C90.4896 42.5521 90.2604 42.2917 89.1563 42L88.4062 41.8021L88.4375 41.6771L94.1146 40.25V50.7604L94.2083 50.8542C95.5104 49.2292 97.2604 47.9062 99.3021 47.9062C102.51 47.9062 105.073 50.7917 105.073 54.75C105.073 58.7083 100.792 62.5417 97.3542 62.5417C93.9167 62.5417 94.1771 62.0521 92.9375 61.5312H92.9063L90.6667 62.7604H90.4687V43.9479H90.4896ZM101.063 55.7917C101.063 52.5104 99.5729 49.9479 97.1042 49.9479C94.6354 49.9479 94.8958 50.5938 94.1146 51.3438V59C94.9271 60.75 96.4479 62.1771 97.8125 62.1771C99.9167 62.1771 101.052 59.2604 101.052 55.7812L101.063 55.7917Z" fill="#FF71AA"/>
<path d="M114.104 59.6562L114.073 59.625C112.708 61.1458 111.313 62.4167 109.625 62.4167C107.938 62.4167 106.281 60.9271 106.281 59.3333C106.281 57.0625 108.062 55.4688 114.229 53.9479L114.26 52.8437C114.354 50.1146 113.094 48.5937 111.021 48.5937C108.948 48.5937 109.01 49.0833 109.01 49.4375C109.01 49.7917 109.979 50.5104 109.979 51.3542C109.979 52.1979 109.198 53.0417 108.094 53.0417C106.99 53.0417 106.281 52.4583 106.281 51.4792C106.281 49.4062 110.625 47.75 113.323 47.75C116.021 47.75 118.125 49.1146 117.958 52.7812L117.667 58.8438C117.604 60.0417 118.125 60.625 118.865 60.625C119.604 60.625 119.833 60.1354 120.229 59.6875L120.427 59.7812C119.708 60.6875 118.385 62.4375 116.729 62.4375C115.073 62.4375 114.333 61.3958 114.104 59.6458V59.6562ZM114.042 59.2708L114.271 54.3021C110.802 55.1146 109.896 56.3437 109.896 58C109.896 59.6562 110.74 60.3333 111.875 60.3333C113.01 60.3333 113.333 60.0104 114.052 59.2604L114.042 59.2708Z" fill="#FF71AA"/>
<path d="M121.052 61.6979L120.854 57.6458H121.021L121.802 59.0417C122.875 61.0833 123.979 62.25 125.885 62.25C127.792 62.25 128.646 61.1771 128.646 59.6875C128.646 58.1979 127.187 57.2917 125.24 56.5417C123.031 55.6979 121.115 54.7604 121.115 52.2292C121.115 49.6979 123.292 47.7812 126.302 47.7812C129.312 47.7812 128.542 48.0104 129.385 48.3333L130.646 48.0104L130.812 52.1979L130.646 52.2604L128.25 48.8229C127.729 48.4688 127.083 48.0729 126.24 48.0729C124.677 48.0729 123.802 49.0104 123.802 50.4687C123.802 51.9271 125.26 52.6146 127.208 53.3542C129.385 54.2292 131.521 55.1354 131.521 57.8333C131.521 60.5312 129.635 62.5417 125.708 62.5417C121.781 62.5417 122.24 62.1563 121.031 61.6979H121.052Z" fill="#FF71AA"/>
<path d="M132.594 57.6771C132.594 53.0417 136.615 47.7188 141.26 47.7188C145.906 47.7188 144.865 48.7604 144.865 50.3438C144.865 52.6146 141.781 53.875 136.625 54.625C136.396 55.5 136.302 56.4063 136.302 57.2813C136.302 59.3542 137.208 60.4896 138.896 60.4896C140.583 60.4896 141.687 59.7708 143.177 57.1146L143.437 57.2083C141.719 60.6146 139.51 62.4687 137.115 62.4687C134.719 62.4687 132.604 60.4271 132.604 57.6667L132.594 57.6771ZM142.01 49.9896C142.01 48.9167 141.594 48.1354 140.781 48.1354C139.969 48.1354 139.844 48.3958 139.354 48.8542C138.313 49.8958 137.208 52.0313 136.698 54.2708L136.76 54.3021C139.875 53.7188 142.021 52.3542 142.021 49.9896H142.01Z" fill="#FF71AA"/>
<path d="M149.094 40.9688L149.26 42.0625C149.531 43.8958 150.969 45.3333 152.802 45.6042L153.896 45.7708L152.802 45.9375C150.969 46.2083 149.531 47.6458 149.26 49.4792L149.094 50.5729L148.927 49.4792C148.656 47.6458 147.219 46.2083 145.385 45.9375L144.292 45.7708L145.385 45.6042C147.219 45.3333 148.656 43.8958 148.927 42.0625L149.094 40.9688Z" fill="#FF71AA"/>
</svg>
