<svg width="96" height="100" viewBox="0 0 96 100" fill="none" xmlns="http://www.w3.org/2000/svg">
<rect width="96" height="100" rx="48" fill="#FFECF4"/>
<path fill-rule="evenodd" clip-rule="evenodd" d="M38.5067 58.958L38.252 57.6569C37.9876 56.3063 38.7206 54.9063 40.0287 54.2635L40.1378 54.2099C40.8443 53.8628 41.3885 53.2588 41.6445 52.5381C41.948 51.6833 42.6533 51.0014 43.5377 50.708L45.1338 50.1784C45.6986 49.991 46.2159 49.678 46.6427 49.2655L48.3849 47.5814C49.0517 46.9368 49.3523 46.0262 49.1833 45.1629C48.6838 42.6118 50.6378 40.0957 53.3486 39.7993L53.9624 39.7322C57.2025 39.378 59.7842 42.0117 59.2539 45.1301L59.1608 45.6774C58.7409 48.1462 56.322 49.9084 53.7952 49.5862C52.9286 49.4757 52.0375 49.7761 51.398 50.3943L41.68 59.7884C40.919 60.524 39.717 60.5548 38.9954 59.8572C38.7437 59.6139 38.574 59.3017 38.5067 58.958ZM55.185 43.6874C55.69 44.1755 55.69 44.967 55.185 45.4552C54.68 45.9433 53.8613 45.9433 53.3563 45.4552C52.8513 44.967 52.8513 44.1755 53.3563 43.6874C53.8613 43.1992 54.68 43.1992 55.185 43.6874Z" fill="#D01361"/>
</svg>
