<svg width="96" height="100" viewBox="0 0 96 100" fill="none" xmlns="http://www.w3.org/2000/svg">
<rect width="96" height="100" rx="48" fill="#FFECF4"/>
<path fill-rule="evenodd" clip-rule="evenodd" d="M48.0002 61.25C54.4277 61.25 59.6382 56.2132 59.6382 50C59.6382 43.7868 54.4277 38.75 48.0002 38.75C41.5728 38.75 36.3623 43.7868 36.3623 50C36.3623 56.2132 41.5728 61.25 48.0002 61.25ZM52.7529 48.4218C53.2796 47.9555 53.3155 47.1649 52.8331 46.6557C52.3508 46.1466 51.5328 46.1119 51.0062 46.5782L46.2319 50.805L44.9943 49.7092C44.4676 49.243 43.6497 49.2777 43.1673 49.7868C42.685 50.2959 42.7209 51.0866 43.2476 51.5529L45.3586 53.4218C45.8528 53.8594 46.611 53.8594 47.1053 53.4218L52.7529 48.4218Z" fill="#D01361"/>
</svg>
