<svg width="15" height="15" viewBox="0 0 15 15" fill="none" xmlns="http://www.w3.org/2000/svg">
<path d="M8.33333 0.833333C8.33333 0.373096 7.96024 0 7.5 0C7.03976 0 6.66667 0.373096 6.66667 0.833333V6.66667H0.833333C0.373096 6.66667 0 7.03976 0 7.5C0 7.96024 0.373096 8.33333 0.833333 8.33333H6.66667V14.1667C6.66667 14.6269 7.03976 15 7.5 15C7.96024 15 8.33333 14.6269 8.33333 14.1667V8.33333H14.1667C14.6269 8.33333 15 7.96024 15 7.5C15 7.03976 14.6269 6.66667 14.1667 6.66667H8.33333V0.833333Z" fill="white"/>
</svg>
