<svg width="28" height="26" viewBox="0 0 28 26" fill="none" xmlns="http://www.w3.org/2000/svg">
<path d="M5.4786 8.99784C6.07996 9.19829 6.55184 9.67017 6.75229 10.2715C6.95629 10.8835 7.82197 10.8835 8.02597 10.2715C8.22642 9.67017 8.6983 9.19829 9.29966 8.99784C9.91167 8.79384 9.91167 7.92816 9.29966 7.72416C8.6983 7.52371 8.22642 7.05183 8.02597 6.45048C7.82197 5.83846 6.95629 5.83846 6.75229 6.45048C6.55184 7.05183 6.07996 7.52371 5.4786 7.72416C4.86659 7.92816 4.86659 8.79384 5.4786 8.99784Z" fill="#3D89DF"/>
<path fill-rule="evenodd" clip-rule="evenodd" d="M5.25 0.5C2.48858 0.5 0.25 2.73858 0.25 5.5V20.5C0.25 23.2614 2.48858 25.5 5.25 25.5H22.75C25.5114 25.5 27.75 23.2614 27.75 20.5V5.5C27.75 2.73858 25.5114 0.5 22.75 0.5H5.25ZM25.25 15.2477V5.5C25.25 4.11929 24.1307 3 22.75 3H5.25C3.86929 3 2.75 4.11929 2.75 5.5V20.5C2.75 21.8807 3.86929 23 5.25 23H5.42834C5.31258 22.6454 5.25 22.2668 5.25 21.8736C5.25 21.13 5.47859 20.4044 5.90479 19.7951L9.4194 14.7704C10.5271 13.1867 12.657 12.7042 14.339 13.656L14.7337 13.8793L15.3245 13.0352C16.4932 11.3657 18.7812 10.9351 20.4768 12.0655L25.25 15.2477ZM13.2934 15.9368L13.1079 15.8318C12.5472 15.5146 11.8372 15.6754 11.468 16.2033L7.95338 21.228C7.821 21.4173 7.75 21.6427 7.75 21.8736C7.75 22.4957 8.2543 23 8.87638 23H10.2652C9.88232 21.9275 9.97578 20.6763 10.7295 19.5995L13.2934 15.9368ZM13.8016 23H22.75C24.1307 23 25.25 21.8807 25.25 20.5V18.9213C25.25 18.5034 25.0411 18.1131 24.6934 17.8812L19.09 14.1457C18.5248 13.7689 17.7621 13.9124 17.3726 14.4689L12.7776 21.0332C12.1977 21.8616 12.7904 23 13.8016 23Z" fill="#3D89DF"/>
</svg>
