<svg width="17" height="17" viewBox="0 0 17 17" fill="none" xmlns="http://www.w3.org/2000/svg">
<path fill-rule="evenodd" clip-rule="evenodd" d="M8.4974 1.83301C6.65645 1.83301 5.16406 3.32539 5.16406 5.16634C5.16406 7.00729 6.65645 8.49967 8.4974 8.49967C10.3383 8.49967 11.8307 7.00729 11.8307 5.16634C11.8307 3.32539 10.3383 1.83301 8.4974 1.83301ZM6.4974 5.16634C6.4974 4.06177 7.39283 3.16634 8.4974 3.16634C9.60197 3.16634 10.4974 4.06177 10.4974 5.16634C10.4974 6.27091 9.60197 7.16634 8.4974 7.16634C7.39283 7.16634 6.4974 6.27091 6.4974 5.16634Z" fill="#B73F79"/>
<path fill-rule="evenodd" clip-rule="evenodd" d="M8.49739 15.833C7.47039 15.833 5.98394 15.5998 4.86768 15.1113C4.31968 14.8714 3.76236 14.5282 3.43856 14.0313C3.26827 13.77 3.16062 13.4621 3.16415 13.1185C3.16764 12.778 3.27969 12.4517 3.46801 12.1482C4.38094 10.6768 6.24859 9.16634 8.49739 9.16634C10.7462 9.16634 12.6139 10.6768 13.5268 12.1482C13.7151 12.4517 13.8272 12.778 13.8306 13.1185C13.8342 13.4621 13.7265 13.77 13.5562 14.0313C13.2324 14.5282 12.6751 14.8714 12.1271 15.1113C11.0108 15.5998 9.52439 15.833 8.49739 15.833ZM4.60099 12.8511C4.51321 12.9926 4.49791 13.0835 4.49741 13.1322C4.49694 13.1777 4.50864 13.2312 4.55564 13.3033C4.66642 13.4733 4.93544 13.6855 5.40228 13.8898C6.31569 14.2896 7.61289 14.4997 8.49739 14.4997C9.3819 14.4997 10.6791 14.2896 11.5925 13.8898C12.0593 13.6855 12.3284 13.4733 12.4392 13.3033C12.4862 13.2312 12.4979 13.1777 12.4974 13.1322C12.4969 13.0835 12.4816 12.9926 12.3938 12.8511C11.6457 11.6454 10.1536 10.4997 8.49739 10.4997C6.84117 10.4997 5.34909 11.6454 4.60099 12.8511Z" fill="#B73F79"/>
</svg>
