<svg width="26" height="24" viewBox="0 0 26 24" fill="none" xmlns="http://www.w3.org/2000/svg">
<path fill-rule="evenodd" clip-rule="evenodd" d="M15.4999 0.75C11.3578 0.75 7.99993 4.10786 7.99993 8.25C7.99993 12.3921 11.3578 15.75 15.4999 15.75C19.6421 15.75 22.9999 12.3921 22.9999 8.25C22.9999 4.10786 19.6421 0.75 15.4999 0.75ZM10.4999 8.25C10.4999 5.48858 12.7385 3.25 15.4999 3.25C18.2614 3.25 20.4999 5.48858 20.4999 8.25C20.4999 11.0114 18.2614 13.25 15.4999 13.25C12.7385 13.25 10.4999 11.0114 10.4999 8.25Z" fill="#B73F79"/>
<path d="M8.19418 22.659C7.83022 23.2456 7.05962 23.4261 6.473 23.0622C5.88638 22.6982 5.70588 21.9276 6.06983 21.341C7.78159 18.582 11.2834 15.75 15.4999 15.75C19.7164 15.75 23.2183 18.582 24.93 21.341C25.294 21.9276 25.1135 22.6982 24.5269 23.0622C23.9403 23.4261 23.1697 23.2456 22.8057 22.659C21.403 20.3982 18.6054 18.25 15.4999 18.25C12.3945 18.25 9.59687 20.3982 8.19418 22.659Z" fill="#B73F79"/>
<path d="M7.87225 5.19964C8.1762 5.81949 7.92012 6.56837 7.30028 6.87232C6.16445 7.4293 5.49993 8.43974 5.49993 9.5C5.49993 10.5603 6.16445 11.5707 7.30028 12.1277C7.92012 12.4316 8.1762 13.1805 7.87225 13.8004C7.5683 14.4202 6.81941 14.6763 6.19957 14.3723C4.35357 13.4671 2.99993 11.6669 2.99993 9.5C2.99993 7.33309 4.35357 5.53291 6.19957 4.62768C6.81941 4.32372 7.5683 4.5798 7.87225 5.19964Z" fill="#B73F79"/>
<path d="M3.19418 22.659C2.83022 23.2456 2.05962 23.4261 1.473 23.0622C0.88638 22.6982 0.705875 21.9276 1.06983 21.341C1.7937 20.1743 2.95187 19.2005 4.24397 18.4449C4.83992 18.0964 5.60553 18.2971 5.954 18.893C6.30248 19.489 6.10186 20.2546 5.50591 20.603C4.42628 21.2344 3.63194 21.9534 3.19418 22.659Z" fill="#B73F79"/>
</svg>
