<svg width="561" height="214" viewBox="0 0 561 214" fill="none" xmlns="http://www.w3.org/2000/svg">
<path d="M926.183 -11.4613C877.337 -70.4586 813.516 -113.635 741.57 -136.345C601.146 -180.683 441.705 -143.875 344.751 -44.7449C341.961 -41.9012 307.763 -6.35461 280.355 46.5347C280.355 46.5347 332.935 40.8473 340.628 40.8273C360.753 9.24585 380.139 -10.8805 380.591 -11.3612C464.681 -97.3338 603.608 -129.095 726.327 -90.3447C853.93 -50.0519 948.524 64.3581 967.357 201.157L1016.45 194.729C1005.97 118.509 974.742 47.2156 926.183 -11.4813V-11.4613ZM443.469 55.7067L420.718 99.4841C450.895 108.436 475.575 122.935 491.289 141.639C520.974 176.986 533.96 241.09 503.188 283.005C479.678 315.047 432.657 331.348 391.402 321.755C352.219 312.664 321.016 278.539 303.496 225.649C287.843 178.368 297.28 130.725 314.184 90.6726C314.41 90.6726 314.636 90.6325 314.861 90.6125C306.348 91.1732 296.849 92.2546 286.592 94.1371C275.801 96.1197 266.097 98.643 257.625 101.307C244.557 143.562 240.146 191.585 256.373 240.549C279.391 310.1 323.272 355.64 379.934 368.777C440.904 382.956 508.152 359.225 543.479 311.162C588.509 249.821 571.789 161.205 529.611 110.979C509.034 86.4671 479.329 67.6624 443.469 55.6867V55.7067Z" fill="#FF71AA"/>
<path d="M435.777 76.2138L434.176 75.633L435.038 73.31L436.638 73.8907L436.905 73.1698C437.151 72.5089 437.5 71.9282 437.931 71.4275C438.361 70.9269 438.895 70.5463 439.49 70.2459C440.085 69.9455 440.741 69.7854 441.439 69.7653C442.136 69.7453 442.895 69.8654 443.654 70.1258C444.249 70.326 444.783 70.5864 445.254 70.9068C445.726 71.2072 446.157 71.5677 446.547 71.9682C446.937 72.3687 447.285 72.7893 447.614 73.2299L445.521 75.0523C445.254 74.5516 444.885 74.111 444.413 73.7105C443.941 73.31 443.429 73.0096 442.875 72.8093C442.423 72.6491 442.013 72.609 441.623 72.6891C441.234 72.7692 440.905 72.9495 440.639 73.2098C440.372 73.4702 440.167 73.7906 440.023 74.1711L439.715 75.0122L446.26 77.3352L442.034 88.61L438.915 87.4885L442.259 78.5368L438.833 77.3152L435.489 86.2669L432.371 85.1455L435.715 76.1937L435.777 76.2138Z" fill="#BCFDA0"/>
<path d="M446.218 83.423C446.731 82.3216 447.408 81.4204 448.269 80.7195C449.131 80.0186 450.075 79.598 451.121 79.4178C452.167 79.2375 453.193 79.3777 454.219 79.8383C455.101 80.2188 455.778 80.7796 456.291 81.5005C456.803 82.2214 457.091 83.0025 457.193 83.8236L460.27 77.1147L463.307 78.4365L457.419 91.2333C457.275 91.5337 457.234 91.794 457.275 91.9742C457.316 92.1545 457.46 92.3147 457.706 92.4549L456.598 94.858C456.024 94.7378 455.573 94.5976 455.244 94.4374C454.711 94.1971 454.321 93.8767 454.075 93.4562C453.849 93.0356 453.808 92.595 453.952 92.1544L454.239 91.4135C453.459 91.9342 452.618 92.2346 451.695 92.2946C450.772 92.3547 449.91 92.1945 449.09 91.8341C448.269 91.4736 447.592 90.9929 447.059 90.3922C446.525 89.7914 446.115 89.1105 445.848 88.3495C445.582 87.5885 445.479 86.7874 445.541 85.9463C445.602 85.1052 445.807 84.2641 446.197 83.443L446.218 83.423ZM454.793 89.0103L456.044 86.3068C456.085 85.8262 456.024 85.3455 455.839 84.8649C455.655 84.3843 455.408 83.9637 455.101 83.5832C454.793 83.2027 454.424 82.9424 454.013 82.7621C453.542 82.5619 453.09 82.4617 452.618 82.4818C452.147 82.5018 451.716 82.622 451.285 82.8022C450.854 83.0025 450.485 83.2828 450.136 83.6233C449.808 83.9837 449.521 84.3843 449.316 84.8449C449.11 85.3055 448.987 85.7861 448.946 86.2667C448.926 86.7474 448.987 87.208 449.151 87.6485C449.315 88.0891 449.562 88.4696 449.869 88.8301C450.198 89.1706 450.587 89.4509 451.039 89.6512C451.326 89.7713 451.634 89.8514 451.982 89.8915C452.331 89.9316 452.659 89.9115 452.988 89.8715C453.336 89.8314 453.644 89.7313 453.972 89.5711C454.28 89.4309 454.567 89.2306 454.793 89.0103Z" fill="#BCFDA0"/>
<path d="M463.306 98.6832C462.403 98.2026 461.644 97.6018 461.091 96.9009C460.516 96.2 460.126 95.459 459.901 94.658C459.675 93.8569 459.613 93.0358 459.716 92.2147C459.819 91.3937 460.085 90.5926 460.496 89.8316C461.091 88.7903 461.87 87.9492 462.834 87.3484C463.799 86.7476 464.886 86.4272 466.096 86.3871C467.286 86.3471 468.517 86.6675 469.748 87.3284C470.999 87.9892 471.902 88.8303 472.497 89.8316C473.092 90.833 473.358 91.8943 473.358 92.9958C473.358 94.0972 473.051 95.1586 472.497 96.1599C472.394 96.3201 472.292 96.5004 472.189 96.6606C472.066 96.8208 471.984 96.961 471.902 97.0611L463.122 92.3349C462.875 92.9157 462.773 93.4965 462.814 94.0572C462.855 94.6179 463.039 95.1386 463.368 95.5792C463.696 96.0398 464.106 96.4002 464.599 96.6606C465.173 96.981 465.809 97.1212 466.465 97.1212C467.142 97.1212 467.696 96.9409 468.127 96.6005L470.24 98.6232C469.645 99.0437 468.968 99.3241 468.209 99.4843C467.45 99.6445 466.65 99.6645 465.809 99.5444C464.968 99.4242 464.147 99.1238 463.306 98.6832ZM464.045 90.4925L469.994 93.6967C470.24 93.1159 470.363 92.5552 470.322 91.9945C470.281 91.4337 470.117 90.9331 469.809 90.4725C469.502 90.0119 469.091 89.6314 468.558 89.351C468.045 89.0706 467.491 88.9304 466.937 88.9304C466.383 88.9304 465.85 89.0506 465.358 89.331C464.865 89.5913 464.434 89.9919 464.065 90.5125L464.045 90.4925Z" fill="#BCFDA0"/>
<path d="M480.457 108.916L477.708 107.114L481.708 101.306C482.282 100.485 482.549 99.7644 482.508 99.1836C482.467 98.6028 482.18 98.1422 481.646 97.7817C481.277 97.5414 480.846 97.3812 480.333 97.3211C479.821 97.2611 479.328 97.2811 478.795 97.4013C478.282 97.5214 477.79 97.7417 477.379 98.0822L473.194 104.15L470.445 102.348L477.626 91.9341L480.108 93.5762L478.774 95.5188C479.349 95.2585 479.964 95.0983 480.6 95.0582C481.236 95.0181 481.893 95.1183 482.57 95.3185C483.247 95.5188 483.883 95.8192 484.498 96.2197C485.175 96.6603 485.647 97.1409 485.913 97.6616C486.18 98.1823 486.303 98.703 486.262 99.2437C486.221 99.7844 486.078 100.325 485.831 100.866C485.585 101.407 485.278 101.947 484.949 102.448L480.477 108.936L480.457 108.916Z" fill="#BCFDA0"/>
<path d="M486.632 114.083C485.812 113.422 485.196 112.701 484.766 111.92C484.335 111.139 484.089 110.318 484.027 109.477C483.966 108.636 484.068 107.815 484.335 107.014C484.601 106.213 485.012 105.472 485.566 104.811C486.325 103.89 487.248 103.229 488.315 102.828C489.381 102.408 490.51 102.288 491.679 102.468C492.848 102.648 493.977 103.169 495.064 104.05C496.151 104.911 496.89 105.892 497.28 106.974C497.669 108.055 497.751 109.137 497.505 110.178L494.367 108.916C494.449 108.376 494.408 107.875 494.202 107.394C493.997 106.914 493.69 106.493 493.259 106.153C492.766 105.772 492.233 105.532 491.618 105.452C491.023 105.372 490.428 105.452 489.812 105.692C489.197 105.932 488.684 106.353 488.192 106.934C487.72 107.494 487.412 108.095 487.289 108.716C487.166 109.337 487.186 109.938 487.371 110.498C487.556 111.059 487.884 111.54 488.376 111.94C488.684 112.181 489.012 112.361 489.381 112.481C489.751 112.601 490.099 112.661 490.469 112.661C490.838 112.661 491.166 112.581 491.453 112.441L493.341 115.205C492.705 115.505 492.007 115.665 491.228 115.705C490.448 115.745 489.689 115.625 488.91 115.365C488.13 115.104 487.371 114.684 486.632 114.083Z" fill="#BCFDA0"/>
<path d="M496.13 122.554C495.392 121.833 494.858 121.052 494.51 120.231C494.161 119.41 493.997 118.569 494.017 117.748C494.038 116.927 494.223 116.106 494.551 115.345C494.879 114.584 495.371 113.883 496.007 113.282C496.869 112.441 497.874 111.86 498.982 111.56C500.09 111.259 501.218 111.239 502.387 111.54C503.557 111.84 504.624 112.481 505.608 113.442C506.613 114.424 507.249 115.485 507.516 116.606C507.783 117.728 507.762 118.809 507.414 119.891C507.065 120.972 506.49 121.893 505.67 122.674C505.526 122.815 505.383 122.935 505.218 123.075C505.054 123.215 504.931 123.315 504.829 123.375L497.772 116.406C497.361 116.887 497.095 117.427 496.971 117.968C496.848 118.509 496.889 119.07 497.054 119.59C497.238 120.111 497.525 120.572 497.936 120.972C498.408 121.433 498.961 121.753 499.597 121.933C500.233 122.114 500.828 122.114 501.341 121.893L502.777 124.417C502.08 124.657 501.362 124.737 500.582 124.677C499.803 124.617 499.043 124.417 498.264 124.056C497.505 123.696 496.787 123.195 496.11 122.534L496.13 122.554ZM499.208 114.924L503.988 119.63C504.398 119.15 504.665 118.629 504.788 118.088C504.911 117.548 504.89 117.007 504.726 116.486C504.562 115.966 504.275 115.485 503.844 115.064C503.434 114.644 502.962 114.363 502.428 114.203C501.895 114.043 501.362 114.023 500.808 114.143C500.254 114.263 499.72 114.504 499.228 114.904L499.208 114.924Z" fill="#BCFDA0"/>
<path d="M499.926 130.365L502.593 128.963L501.916 128.202L504.542 125.979L506.429 128.102L503.803 130.325L500.91 131.466L499.926 130.365Z" fill="#BCFDA0"/>
<path d="M525.221 138.235C525.262 138.075 525.282 137.814 525.282 137.474C525.282 137.133 525.241 136.713 525.159 136.252C525.077 135.792 524.954 135.331 524.79 134.83C524.626 134.33 524.4 133.869 524.113 133.449C523.6 132.688 523.087 132.207 522.533 132.007C521.979 131.806 521.446 131.866 520.933 132.207C520.543 132.467 520.297 132.788 520.215 133.168C520.133 133.549 520.195 134.049 520.338 134.65C520.502 135.251 520.728 135.972 521.015 136.813C521.405 137.914 521.672 138.916 521.795 139.817C521.918 140.718 521.836 141.539 521.528 142.26C521.22 142.981 520.625 143.622 519.743 144.183C518.964 144.683 518.184 144.964 517.446 145.024C516.707 145.084 515.989 144.984 515.312 144.703C514.635 144.423 513.999 144.002 513.425 143.482C512.85 142.941 512.317 142.32 511.845 141.599C511.373 140.878 510.963 140.117 510.655 139.296C510.327 138.475 510.081 137.654 509.937 136.813C509.773 135.972 509.712 135.151 509.753 134.33L513.055 134.009C513.014 134.209 512.994 134.53 512.994 134.97C512.994 135.411 513.055 135.912 513.138 136.492C513.24 137.073 513.384 137.654 513.589 138.275C513.794 138.896 514.081 139.476 514.45 140.017C514.963 140.778 515.456 141.259 515.989 141.499C516.502 141.719 517.015 141.679 517.487 141.379C517.938 141.099 518.164 140.718 518.205 140.257C518.246 139.797 518.184 139.216 518 138.555C517.815 137.874 517.589 137.093 517.302 136.192C516.953 135.111 516.748 134.169 516.666 133.368C516.584 132.547 516.687 131.846 516.994 131.226C517.302 130.605 517.815 130.064 518.553 129.603C519.559 128.963 520.564 128.662 521.549 128.702C522.533 128.742 523.477 129.043 524.359 129.623C525.241 130.204 526 130.965 526.657 131.947C527.108 132.627 527.457 133.308 527.703 134.009C527.949 134.71 528.134 135.391 528.216 136.092C528.319 136.773 528.36 137.414 528.339 138.035L525.18 138.275L525.221 138.235Z" fill="#BCFDA0"/>
<path d="M516.152 148.348L527.518 142.24L529.118 145.084L517.752 151.192L516.152 148.348ZM529.118 141.379L532.01 139.837L533.61 142.681L530.718 144.223L529.118 141.379Z" fill="#BCFDA0"/>
<path d="M527.17 170.978L525.836 168.014L532.401 165.21C533.324 164.81 533.94 164.369 534.227 163.849C534.514 163.328 534.555 162.807 534.288 162.246C534.022 161.666 533.55 161.225 532.873 160.885C532.175 160.564 531.416 160.444 530.596 160.524L523.785 163.448L522.451 160.484L529.016 157.66C529.96 157.26 530.575 156.799 530.862 156.299C531.15 155.798 531.17 155.257 530.924 154.697C530.657 154.116 530.206 153.675 529.529 153.335C528.852 152.994 528.093 152.874 527.272 152.974L520.4 155.918L519.066 152.954L530.842 147.908L532.052 150.591L529.857 151.532C530.821 151.653 531.663 151.993 532.422 152.554C533.16 153.115 533.755 153.876 534.186 154.837C534.617 155.798 534.719 156.639 534.473 157.4C534.227 158.141 533.796 158.742 533.16 159.182C534.186 159.303 535.068 159.643 535.827 160.204C536.586 160.745 537.161 161.485 537.571 162.407C537.899 163.128 538.022 163.768 537.961 164.329C537.899 164.89 537.714 165.391 537.386 165.831C537.058 166.272 536.648 166.652 536.135 166.993C535.622 167.333 535.088 167.614 534.514 167.854L527.17 170.998V170.978Z" fill="#BCFDA0"/>
<path d="M529.692 180.11C529.384 179.168 529.343 178.287 529.548 177.426C529.753 176.585 530.143 175.844 530.759 175.223L523.578 177.406L522.594 174.302L539.908 169.055L540.77 171.759L538.636 172.4C539.498 172.64 540.257 173.06 540.893 173.641C541.529 174.222 542.001 174.963 542.288 175.884C542.555 176.705 542.616 177.506 542.514 178.287C542.411 179.068 542.144 179.809 541.714 180.49C541.283 181.171 540.749 181.772 540.072 182.293C539.395 182.813 538.636 183.194 537.754 183.454C536.564 183.815 535.416 183.915 534.308 183.754C533.2 183.594 532.236 183.194 531.415 182.573C530.595 181.952 530.02 181.131 529.692 180.09V180.11ZM532.051 178.247C532.195 178.728 532.441 179.128 532.769 179.449C533.097 179.769 533.467 180.03 533.918 180.21C534.369 180.39 534.821 180.49 535.313 180.49C535.805 180.49 536.277 180.43 536.769 180.29C537.282 180.13 537.734 179.909 538.103 179.629C538.493 179.329 538.8 178.988 539.026 178.568C539.252 178.167 539.416 177.727 539.457 177.266C539.518 176.805 539.457 176.325 539.313 175.844C539.211 175.544 539.067 175.263 538.883 175.003C538.677 174.723 538.452 174.482 538.185 174.262C537.918 174.042 537.611 173.861 537.303 173.721C536.995 173.581 536.667 173.521 536.359 173.521L533.487 174.402C533.097 174.723 532.769 175.103 532.502 175.524C532.236 175.944 532.051 176.405 531.99 176.885C531.907 177.366 531.948 177.827 532.072 178.247H532.051Z" fill="#BCFDA0"/>
<path d="M549.49 182.854L550.249 185.998L536.648 189.142C536.073 189.282 535.704 189.462 535.54 189.702C535.376 189.943 535.355 190.223 535.417 190.544C535.478 190.804 535.581 191.044 535.704 191.305C535.827 191.565 535.971 191.765 536.114 191.945L533.755 192.947C533.447 192.566 533.16 192.106 532.914 191.585C532.668 191.044 532.483 190.544 532.381 190.103C532.134 189.122 532.217 188.281 532.627 187.62C533.037 186.959 533.735 186.498 534.74 186.278L549.47 182.874L549.49 182.854Z" fill="#BCFDA0"/>
<path d="M533.549 194.088L546.289 191.685L546.925 194.869L534.185 197.272L533.549 194.088ZM548.073 191.344L551.315 190.724L551.951 193.908L548.709 194.529L548.073 191.344Z" fill="#BCFDA0"/>
<path d="M534.76 200.516L544.422 199.134L544.176 197.492L546.679 197.132L546.925 198.774L547.705 198.654C548.771 198.494 549.715 198.534 550.536 198.774C551.356 199.014 552.033 199.415 552.567 199.976C553.08 200.536 553.408 201.257 553.531 202.098C553.613 202.619 553.613 203.14 553.572 203.66C553.531 204.181 553.408 204.742 553.244 205.283L550.679 204.982C550.782 204.722 550.843 204.421 550.884 204.101C550.925 203.781 550.925 203.46 550.884 203.18C550.802 202.639 550.536 202.259 550.105 202.018C549.674 201.798 549.079 201.718 548.32 201.838L547.417 201.978L547.869 205.042L545.366 205.403L544.915 202.339L535.252 203.72L534.78 200.516H534.76Z" fill="#BCFDA0"/>
<path d="M533.386 208.467C533.345 208.767 533.304 209.027 533.283 209.288C533.263 209.548 533.242 209.748 533.263 209.929C533.283 210.229 533.386 210.489 533.55 210.67C533.714 210.85 534.022 211.03 534.432 211.19C534.842 211.351 535.417 211.511 536.155 211.671L548.628 205.723L548.895 209.068L539.663 213.173L549.387 215.456L549.634 218.54L533.817 214.374C533.222 214.214 532.688 213.974 532.196 213.613C531.704 213.253 531.293 212.792 530.986 212.232C530.678 211.671 530.493 211.01 530.432 210.289C530.432 210.029 530.432 209.768 530.432 209.508C530.452 209.248 530.493 208.967 530.575 208.647L533.447 208.427L533.386 208.467Z" fill="#BCFDA0"/>
<path d="M281.464 202.779L282.182 205.943L275.166 207.445C274.181 207.666 273.484 207.986 273.094 208.427C272.704 208.867 272.581 209.388 272.704 209.989C272.848 210.61 273.217 211.13 273.833 211.591C274.448 212.051 275.166 212.312 275.987 212.372L283.269 210.81L283.987 213.974L276.971 215.476C275.966 215.696 275.269 216.017 274.899 216.457C274.51 216.898 274.386 217.418 274.53 218.019C274.674 218.64 275.043 219.161 275.638 219.621C276.233 220.082 276.951 220.342 277.771 220.422L285.095 218.86L285.813 222.025L273.258 224.708L272.622 221.844L274.961 221.344C274.038 221.043 273.279 220.543 272.663 219.862C272.048 219.161 271.617 218.3 271.391 217.278C271.166 216.257 271.248 215.396 271.617 214.715C272.007 214.034 272.54 213.533 273.258 213.213C272.294 212.893 271.473 212.392 270.858 211.711C270.222 211.03 269.812 210.209 269.586 209.228C269.422 208.447 269.422 207.806 269.586 207.265C269.75 206.724 270.058 206.264 270.468 205.903C270.878 205.543 271.371 205.243 271.945 205.002C272.52 204.782 273.094 204.602 273.709 204.461L281.526 202.799L281.464 202.779Z" fill="#BCFDA0"/>
<path d="M280.683 193.207C280.806 194.188 280.683 195.069 280.314 195.871C279.944 196.672 279.411 197.312 278.714 197.813L286.201 196.972L286.571 200.196L268.559 202.199L268.23 199.395L270.446 199.155C269.646 198.754 268.99 198.214 268.477 197.533C267.964 196.852 267.656 196.031 267.533 195.09C267.43 194.248 267.512 193.447 267.779 192.686C268.046 191.945 268.436 191.264 268.99 190.664C269.543 190.063 270.179 189.582 270.938 189.182C271.697 188.801 272.518 188.561 273.421 188.461C274.652 188.321 275.8 188.441 276.867 188.801C277.934 189.162 278.796 189.722 279.493 190.483C280.191 191.244 280.58 192.166 280.724 193.227L280.683 193.207ZM278.016 194.609C277.955 194.108 277.79 193.668 277.544 193.307C277.278 192.927 276.97 192.606 276.559 192.366C276.17 192.106 275.718 191.925 275.247 191.825C274.775 191.725 274.282 191.705 273.79 191.765C273.257 191.825 272.785 191.965 272.354 192.186C271.923 192.406 271.554 192.686 271.246 193.047C270.938 193.407 270.713 193.808 270.569 194.248C270.426 194.689 270.385 195.17 270.446 195.67C270.487 195.971 270.569 196.271 270.713 196.571C270.856 196.872 271.041 197.152 271.267 197.413C271.492 197.673 271.739 197.913 272.026 198.093C272.313 198.274 272.6 198.414 272.928 198.474L275.924 198.133C276.375 197.893 276.765 197.573 277.113 197.212C277.462 196.832 277.708 196.431 277.872 195.971C278.037 195.51 278.098 195.069 278.037 194.609H278.016Z" fill="#BCFDA0"/>
<path d="M261.749 187.039L261.564 183.795L275.515 183.054C276.109 183.014 276.499 182.914 276.704 182.693C276.91 182.493 276.992 182.213 276.971 181.872C276.971 181.612 276.91 181.352 276.828 181.071C276.745 180.811 276.643 180.571 276.54 180.37L279.043 179.81C279.289 180.23 279.474 180.731 279.618 181.312C279.761 181.892 279.843 182.413 279.884 182.874C279.946 183.895 279.7 184.696 279.187 185.277C278.674 185.857 277.894 186.178 276.869 186.238L261.77 187.039H261.749Z" fill="#BCFDA0"/>
<path d="M264.661 178.948L261.358 179.009L261.297 175.764L264.6 175.704L264.661 178.948ZM279.453 178.668L266.467 178.908L266.405 175.664L279.391 175.424L279.453 178.668Z" fill="#BCFDA0"/>
<path d="M279.391 172.079L269.626 171.899L269.585 173.561L267.062 173.521L267.103 171.859H266.303C265.236 171.819 264.313 171.639 263.533 171.278C262.754 170.918 262.159 170.417 261.749 169.776C261.338 169.135 261.133 168.374 261.154 167.533C261.154 167.013 261.236 166.492 261.379 165.971C261.523 165.451 261.728 164.93 261.974 164.429L264.457 165.13C264.313 165.37 264.21 165.651 264.108 165.971C264.005 166.292 263.964 166.592 263.944 166.892C263.944 167.433 264.128 167.854 264.518 168.154C264.908 168.454 265.482 168.615 266.241 168.615H267.165L267.226 165.531L269.749 165.571L269.688 168.655L279.453 168.835L279.391 172.079Z" fill="#BCFDA0"/>
<path d="M282.08 164.269C282.162 163.988 282.244 163.728 282.305 163.468C282.367 163.207 282.408 163.007 282.428 162.827C282.449 162.527 282.387 162.266 282.244 162.046C282.1 161.826 281.833 161.625 281.464 161.405C281.074 161.185 280.541 160.944 279.843 160.684L266.611 164.769L266.857 161.425L276.602 158.702L267.329 155.037L267.555 151.953L282.572 158.361C283.126 158.601 283.618 158.922 284.069 159.342C284.521 159.763 284.849 160.284 285.075 160.884C285.3 161.485 285.382 162.166 285.341 162.887C285.341 163.147 285.28 163.408 285.218 163.648C285.157 163.908 285.075 164.169 284.952 164.469L282.08 164.269Z" fill="#BCFDA0"/>
<path d="M265.954 149.81L262.672 149.429L263.062 146.205L266.324 146.586L265.934 149.81H265.954ZM280.643 151.512L267.76 150.03L268.149 146.806L281.033 148.288L280.643 151.512Z" fill="#BCFDA0"/>
<path d="M283.247 134.129L282.714 137.334L275.636 136.192C274.631 136.032 273.851 136.092 273.339 136.352C272.805 136.633 272.497 137.073 272.395 137.694C272.313 138.115 272.354 138.575 272.518 139.056C272.662 139.536 272.908 139.977 273.236 140.378C273.564 140.798 273.974 141.119 274.467 141.359L281.852 142.54L281.319 145.745L268.641 143.702L269.133 140.818L271.492 141.199C271 140.798 270.61 140.317 270.302 139.757C269.995 139.196 269.81 138.595 269.728 137.914C269.625 137.233 269.646 136.533 269.769 135.832C269.892 135.051 270.159 134.43 270.507 133.989C270.877 133.529 271.308 133.208 271.841 133.028C272.374 132.848 272.928 132.748 273.544 132.728C274.159 132.728 274.775 132.768 275.39 132.868L283.288 134.129H283.247Z" fill="#BCFDA0"/>
<path d="M285.094 127.08C284.91 127.901 284.561 128.602 284.069 129.223C283.576 129.824 282.981 130.324 282.263 130.685C281.545 131.045 280.766 131.266 279.945 131.366C279.104 131.466 278.263 131.406 277.381 131.205C276.458 131.005 275.637 130.665 274.919 130.204C274.201 129.744 273.585 129.183 273.114 128.542C272.621 127.901 272.293 127.18 272.129 126.419C271.965 125.658 271.985 124.837 272.17 123.976C272.396 123.015 272.806 122.234 273.421 121.593C274.016 120.972 274.755 120.511 275.596 120.191L273.38 119.69L274.037 116.927L285.997 119.61C287.248 119.891 288.254 120.431 288.992 121.212C289.731 121.993 290.223 122.975 290.449 124.116C290.674 125.258 290.633 126.499 290.326 127.801C290.018 129.143 289.525 130.224 288.848 131.045C288.171 131.866 287.33 132.527 286.346 132.988L285.033 130.885C285.73 130.545 286.346 130.064 286.859 129.423C287.371 128.782 287.72 128.061 287.905 127.26C288.069 126.579 288.089 125.939 287.987 125.338C287.884 124.737 287.618 124.196 287.207 123.756C286.797 123.315 286.182 122.995 285.381 122.814L283.781 122.454C284.417 123.035 284.828 123.736 285.053 124.557C285.279 125.398 285.279 126.219 285.094 127.06V127.08ZM282.756 125.438C282.838 125.097 282.858 124.757 282.817 124.417C282.776 124.076 282.694 123.756 282.571 123.435C282.448 123.115 282.263 122.834 282.038 122.574C281.812 122.314 281.586 122.094 281.34 121.913L278.304 121.232C277.75 121.312 277.258 121.473 276.806 121.733C276.355 121.993 275.986 122.294 275.678 122.674C275.37 123.055 275.165 123.455 275.062 123.916C274.939 124.397 274.96 124.857 275.062 125.298C275.186 125.738 275.391 126.139 275.698 126.499C276.006 126.86 276.375 127.18 276.806 127.42C277.237 127.661 277.688 127.861 278.201 127.961C278.714 128.081 279.227 128.101 279.719 128.021C280.212 127.941 280.663 127.801 281.073 127.561C281.484 127.32 281.832 127.02 282.12 126.66C282.407 126.299 282.612 125.858 282.715 125.398L282.756 125.438Z" fill="#BCFDA0"/>
<path d="M288.828 111.72L272.047 106.594L273.073 103.41L287.002 107.655L289.69 99.3042L292.541 100.185L288.849 111.72H288.828Z" fill="#BCFDA0"/>
<path d="M279.145 94.037L276.047 92.9756L277.155 89.9116L280.252 90.973L279.145 94.037ZM293.095 98.8433L280.847 94.6378L281.955 91.5738L294.203 95.7793L293.095 98.8433Z" fill="#BCFDA0"/>
<path d="M295.413 92.5151L286.284 89.1306L285.668 90.6927L283.309 89.8115L283.924 88.2495L283.186 87.9691C282.181 87.5886 281.38 87.108 280.765 86.5072C280.15 85.9064 279.78 85.2456 279.596 84.5046C279.411 83.7636 279.493 82.9826 279.801 82.1815C279.985 81.7009 280.232 81.2403 280.56 80.7997C280.868 80.3591 281.237 79.9386 281.668 79.5381L283.76 81.02C283.555 81.2002 283.35 81.4205 283.145 81.7009C282.94 81.9612 282.796 82.2416 282.693 82.502C282.488 83.0226 282.529 83.4833 282.796 83.8838C283.063 84.2843 283.555 84.6247 284.253 84.8851L285.114 85.2055L286.243 82.3017L288.602 83.1828L287.473 86.0866L296.603 89.4711L295.413 92.495V92.5151Z" fill="#BCFDA0"/>
<path d="M300.789 80.0188C300.379 80.96 299.845 81.741 299.209 82.3618C298.573 82.9826 297.835 83.4432 297.035 83.7436C296.235 84.044 295.414 84.1842 294.553 84.1842C293.691 84.1842 292.87 84.004 292.05 83.6635C290.921 83.2029 289.998 82.522 289.28 81.6409C288.562 80.7597 288.131 79.7384 287.967 78.5769C287.803 77.4153 288.008 76.2138 288.542 74.9521C289.096 73.6704 289.855 72.7092 290.819 72.0283C291.783 71.3474 292.829 70.9669 293.958 70.8668C295.086 70.7666 296.194 70.9469 297.26 71.3875C297.445 71.4676 297.63 71.5477 297.794 71.6478C297.958 71.7479 298.122 71.828 298.245 71.8881L294.327 80.8999C294.942 81.0802 295.537 81.1202 296.112 81.0201C296.686 80.9199 297.178 80.6796 297.609 80.3192C298.04 79.9587 298.368 79.5181 298.594 78.9974C298.861 78.3966 298.943 77.7758 298.881 77.135C298.82 76.4941 298.573 75.9735 298.184 75.5729L300.03 73.31C300.522 73.8507 300.871 74.4715 301.117 75.1924C301.363 75.9134 301.466 76.6944 301.425 77.5155C301.384 78.3366 301.179 79.1777 300.789 80.0388V80.0188ZM292.378 80.1389L295.024 74.0309C294.409 73.8507 293.814 73.7906 293.26 73.8907C292.706 73.9909 292.214 74.2112 291.763 74.5516C291.311 74.892 290.983 75.3326 290.737 75.8934C290.511 76.4341 290.409 76.9548 290.47 77.4955C290.532 78.0362 290.716 78.5368 291.024 78.9974C291.352 79.458 291.783 79.8385 292.357 80.1389H292.378Z" fill="#BCFDA0"/>
<path d="M301.075 58.5707C301.506 58.7709 301.855 59.0713 302.101 59.4318C302.368 59.8123 302.491 60.2128 302.532 60.6534C302.573 61.094 302.47 61.5345 302.265 61.9551C302.06 62.3556 301.773 62.676 301.403 62.9364C301.034 63.1767 300.603 63.3169 300.152 63.3569C299.701 63.397 299.249 63.3169 298.818 63.1166C298.408 62.9163 298.08 62.636 297.834 62.2555C297.588 61.875 297.444 61.4745 297.403 61.0339C297.362 60.5933 297.444 60.1728 297.629 59.7522C297.834 59.3316 298.141 58.9912 298.531 58.7509C298.921 58.5106 299.331 58.3704 299.783 58.3303C300.234 58.2903 300.665 58.3704 301.075 58.5707Z" fill="#BCFDA0"/>
<path d="M316.297 42.3694L318.923 43.7713L313.056 54.225L297.629 45.9742L303.394 35.7007L306.019 37.1025L301.896 44.4321L305.609 46.4147L309.179 40.0664L311.62 41.3681L308.05 47.7164L312.071 49.8593L316.297 42.3294V42.3694Z" fill="#BCFDA0"/>
<path d="M326.082 32.0358L324.379 34.8195L318.225 31.2147C317.343 30.6941 316.604 30.4738 316.009 30.5539C315.414 30.6139 314.963 30.9344 314.635 31.4751C314.409 31.8556 314.266 32.2761 314.224 32.7768C314.183 33.2774 314.224 33.7781 314.389 34.2788C314.532 34.7794 314.799 35.24 315.148 35.6205L321.589 39.3855L319.887 42.1691L308.85 35.7206L310.388 33.2174L312.44 34.4189C312.132 33.8582 311.947 33.2774 311.886 32.6566C311.824 32.0358 311.886 31.395 312.029 30.7341C312.173 30.0732 312.481 29.4324 312.85 28.8116C313.26 28.1307 313.732 27.6501 314.245 27.3497C314.758 27.0493 315.291 26.9091 315.845 26.9291C316.399 26.9491 316.953 27.0493 317.527 27.2696C318.102 27.4899 318.656 27.7502 319.189 28.0506L326.062 32.0558L326.082 32.0358Z" fill="#BCFDA0"/>
<path d="M334.043 20.0003L332.237 22.7238L326.206 18.9189C325.365 18.3982 324.647 18.1579 324.031 18.2179C323.416 18.278 322.924 18.5784 322.554 19.1392C322.329 19.4596 322.206 19.8601 322.144 20.3608C322.082 20.8614 322.144 21.342 322.267 21.8427C322.39 22.3434 322.636 22.804 322.985 23.2045L329.283 27.1897L327.478 29.9133L312.297 20.3007L314.102 17.5771L320.503 21.6224C320.072 20.8013 319.908 19.9202 319.969 18.999C320.031 18.0778 320.339 17.2166 320.872 16.4156C321.323 15.7147 321.816 15.234 322.349 14.9537C322.883 14.6733 323.416 14.5331 323.99 14.5532C324.565 14.5532 325.119 14.6733 325.693 14.9136C326.267 15.1539 326.801 15.4143 327.334 15.7547L334.063 20.0003H334.043Z" fill="#BCFDA0"/>
<path d="M331.868 16.5154C331.191 16.0548 330.719 15.454 330.473 14.733C330.227 14.0121 330.207 13.211 330.412 12.3499C330.617 11.4888 331.027 10.6076 331.643 9.7465C331.95 9.30592 332.299 8.88536 332.689 8.48484C333.079 8.08431 333.468 7.76391 333.858 7.54362L333.284 7.16311C332.627 6.70251 331.971 6.56232 331.335 6.7025C330.699 6.84269 330.104 7.30329 329.55 8.06429C329.14 8.62502 328.853 9.24585 328.688 9.90672C328.524 10.5676 328.422 11.3085 328.422 12.1496L326.021 11.7892C326.063 10.7879 326.206 9.84663 326.493 8.96548C326.781 8.08432 327.211 7.24322 327.765 6.4622C328.832 4.98026 330.022 4.07908 331.355 3.75866C332.689 3.43824 334.063 3.75865 335.438 4.69988L338.782 6.98287C339.069 7.18313 339.295 7.26325 339.479 7.24322C339.664 7.24322 339.869 7.12307 340.054 6.90278L342.269 8.40475C342.146 8.66509 342.023 8.9054 341.9 9.12569C341.797 9.32596 341.695 9.50618 341.592 9.64636C341.223 10.167 340.813 10.4875 340.361 10.5876C339.931 10.6877 339.5 10.6677 339.11 10.4875L338.515 10.1671C338.782 11.0282 338.843 11.8893 338.7 12.7905C338.536 13.6917 338.207 14.4927 337.715 15.1936C337.223 15.8745 336.628 16.3952 335.951 16.7557C335.274 17.1162 334.576 17.2764 333.838 17.2363C333.099 17.1963 332.443 16.976 331.807 16.5354L331.868 16.5154ZM337.017 10.4074C336.956 10.147 336.894 9.92673 336.792 9.72647C336.689 9.52621 336.587 9.38602 336.464 9.28589L335.417 8.56495C335.069 8.78523 334.72 9.06561 334.371 9.38603C334.043 9.70645 333.756 10.0269 333.509 10.3673C333.017 11.0482 332.771 11.7291 332.75 12.3699C332.73 13.0108 332.955 13.5114 333.448 13.8319C333.715 14.0121 334.022 14.1122 334.351 14.1323C334.699 14.1323 335.027 14.0722 335.376 13.8919C335.725 13.7117 336.033 13.4313 336.299 13.0508C336.587 12.6503 336.792 12.2097 336.915 11.7291C337.038 11.2485 337.079 10.8079 337.017 10.4074Z" fill="#BCFDA0"/>
<path d="M350.722 -2.60966L348.732 -0.0262852L342.988 -4.23179C342.167 -4.83258 341.47 -5.13297 340.854 -5.13297C340.259 -5.13297 339.767 -4.87263 339.377 -4.37198C339.11 -4.03153 338.926 -3.61097 338.844 -3.11031C338.762 -2.62968 338.762 -2.12903 338.844 -1.60834C338.946 -1.08766 339.151 -0.627061 339.459 -0.186483L345.45 4.19925L343.46 6.78264L333.182 -0.747216L334.987 -3.0903L336.895 -1.68845C336.649 -2.26921 336.526 -2.87 336.526 -3.49082C336.526 -4.11163 336.649 -4.75246 336.895 -5.3933C337.141 -6.03414 337.469 -6.65497 337.921 -7.23573C338.413 -7.87657 338.926 -8.29712 339.459 -8.53744C339.993 -8.77775 340.546 -8.85785 341.1 -8.79778C341.654 -8.7377 342.188 -8.55746 342.742 -8.29712C343.295 -8.01675 343.808 -7.71636 344.301 -7.35588L350.701 -2.64972L350.722 -2.60966Z" fill="#BCFDA0"/>
<path d="M443.469 55.7069L420.718 99.4843C399.423 93.156 375.421 89.5713 349.88 89.1908C338.146 89.0106 326.452 89.5112 314.902 90.6127H314.861C306.348 91.1734 296.849 92.2548 286.592 94.1373C275.801 96.1199 266.098 98.6432 257.625 101.307C257.358 101.367 257.071 101.467 256.825 101.547C205.599 116.146 159.81 143.041 127.868 178.828C30.8537 287.571 82.7973 448.141 85.0539 454.93L37.9313 469.89C34.9977 461.078 20.309 413.957 19.55 352.516C18.5653 271.229 43.101 200.176 90.5109 147.047C121.57 112.221 163.318 84.0641 211.261 65.6199C233.438 57.0687 256.702 50.6603 280.355 46.4748C280.355 46.4748 332.935 40.7874 340.628 40.7673C343.972 40.7273 347.316 40.7273 350.66 40.7673C384.345 41.268 415.774 46.3947 443.489 55.6468L443.469 55.7069Z" fill="#FF71AA"/>
<path d="M82.4495 215.997C81.9776 216.918 81.4032 217.679 80.7057 218.26C80.0082 218.841 79.2492 219.261 78.4286 219.501C77.608 219.742 76.7669 219.842 75.9052 219.762C75.0436 219.702 74.223 219.461 73.423 219.081C72.3357 218.56 71.474 217.839 70.8176 216.918C70.1611 215.997 69.7918 214.955 69.7098 213.794C69.6277 212.632 69.8944 211.451 70.5304 210.209C71.1663 208.988 71.9664 208.066 72.9716 207.446C73.9768 206.825 75.0231 206.524 76.1309 206.524L75.577 209.789C75.0231 209.829 74.5307 209.989 74.0999 210.289C73.6691 210.59 73.3204 210.97 73.0742 211.471C72.787 212.012 72.6844 212.592 72.7254 213.173C72.7665 213.774 72.9921 214.315 73.3819 214.835C73.7717 215.356 74.3051 215.777 74.9821 216.097C75.6591 216.417 76.3155 216.578 76.9515 216.558C77.608 216.558 78.1824 216.377 78.7158 216.077C79.2492 215.777 79.6389 215.356 79.9262 214.795C80.1108 214.455 80.2134 214.094 80.2544 213.734C80.2954 213.373 80.2544 213.013 80.1929 212.672C80.1108 212.332 79.9672 212.032 79.762 211.791L82.1007 209.388C82.5521 209.929 82.8598 210.55 83.0649 211.271C83.2701 211.992 83.3316 212.753 83.2496 213.554C83.1675 214.355 82.9008 215.176 82.4905 215.997H82.4495Z" fill="#BCFDA0"/>
<path d="M88.7473 204.542C88.2345 205.423 87.619 206.144 86.8805 206.684C86.142 207.225 85.3829 207.606 84.5623 207.806C83.7417 208.006 82.9006 208.066 82.0595 207.946C81.2184 207.826 80.3978 207.565 79.6388 207.145C78.572 206.544 77.7514 205.783 77.1359 204.822C76.541 203.861 76.2128 202.799 76.1923 201.618C76.1717 200.436 76.5205 199.275 77.218 198.073C77.9155 196.871 78.7976 195.99 79.8234 195.43C80.8491 194.869 81.9364 194.608 83.0853 194.649C84.2341 194.689 85.3009 194.989 86.3061 195.55C86.4702 195.65 86.6548 195.75 86.819 195.87C86.9831 195.99 87.1267 196.07 87.2293 196.151L82.2441 204.662C82.8391 204.922 83.4135 205.022 84.0084 204.982C84.5828 204.942 85.1162 204.782 85.5881 204.461C86.0599 204.161 86.4292 203.76 86.7164 203.26C87.0446 202.699 87.2087 202.098 87.2293 201.437C87.2293 200.777 87.0651 200.236 86.7164 199.795L88.8294 197.773C89.2397 198.353 89.5269 199.034 89.691 199.775C89.8552 200.516 89.8552 201.297 89.691 202.118C89.5474 202.939 89.2397 203.74 88.7679 204.562L88.7473 204.542ZM80.3773 203.68L83.7417 197.933C83.1468 197.672 82.5724 197.552 81.998 197.592C81.4236 197.612 80.9107 197.773 80.4388 198.073C79.967 198.373 79.5772 198.774 79.2695 199.295C78.9823 199.795 78.8182 200.316 78.8182 200.857C78.8182 201.397 78.9412 201.918 79.1874 202.399C79.4336 202.879 79.8439 203.32 80.3773 203.68Z" fill="#BCFDA0"/>
<path d="M95.4355 198.574L93.302 196.491L92.7481 197.352L89.8145 195.55L91.3531 193.167L94.2867 194.969L96.2356 197.332L95.4355 198.554V198.574Z" fill="#BCFDA0"/>
<path d="M94.6962 172.239C94.5321 172.259 94.2859 172.339 93.9371 172.459C93.5884 172.58 93.2191 172.78 92.8293 173.02C92.419 173.261 92.0087 173.541 91.5984 173.861C91.1881 174.182 90.8189 174.562 90.5111 174.983C89.9778 175.704 89.6905 176.365 89.7111 176.925C89.7316 177.486 89.9778 177.967 90.4701 178.307C90.8599 178.588 91.2497 178.688 91.6395 178.608C92.0498 178.527 92.5011 178.307 93.014 177.967C93.5268 177.606 94.1218 177.146 94.8398 176.565C95.7424 175.804 96.6041 175.223 97.4247 174.763C98.2452 174.322 99.0658 174.102 99.8454 174.122C100.625 174.142 101.466 174.442 102.328 175.063C103.087 175.604 103.641 176.204 103.969 176.845C104.297 177.486 104.461 178.187 104.441 178.908C104.42 179.629 104.256 180.35 103.948 181.071C103.641 181.792 103.23 182.493 102.717 183.194C102.205 183.894 101.61 184.515 100.953 185.116C100.297 185.697 99.5787 186.218 98.8402 186.658C98.1016 187.099 97.3221 187.459 96.5425 187.719L95.0449 184.836C95.2501 184.796 95.5578 184.696 95.9886 184.535C96.3989 184.375 96.8707 184.135 97.3836 183.854C97.8965 183.554 98.4094 183.214 98.9222 182.793C99.4351 182.373 99.8864 181.912 100.276 181.391C100.81 180.67 101.097 180.009 101.138 179.469C101.158 178.908 100.953 178.467 100.481 178.147C100.051 177.847 99.6197 177.766 99.1479 177.887C98.6761 178.027 98.1632 178.287 97.5888 178.688C97.0143 179.088 96.3374 179.589 95.5988 180.17C94.6962 180.871 93.8756 181.391 93.1165 181.752C92.3575 182.112 91.6395 182.272 90.9625 182.232C90.265 182.172 89.5675 181.892 88.8494 181.391C87.8852 180.71 87.2288 179.909 86.9005 178.988C86.5723 178.067 86.5313 177.106 86.7569 176.104C86.9826 175.103 87.4544 174.122 88.1519 173.18C88.6443 172.52 89.1777 171.959 89.7521 171.478C90.3265 170.998 90.9214 170.597 91.5574 170.257C92.1934 169.916 92.7678 169.636 93.3627 169.436L94.7167 172.219L94.6962 172.239Z" fill="#BCFDA0"/>
<path d="M96.1318 167.593L93.5469 165.591L95.6189 163.047L98.2037 165.05L96.1318 167.593ZM107.702 176.565L97.5268 168.695L99.5988 166.151L109.774 174.022L107.702 176.565Z" fill="#BCFDA0"/>
<path d="M124.627 157.44L122.391 159.843L117.078 155.137C116.339 154.476 115.662 154.115 115.067 154.055C114.472 153.995 113.959 154.195 113.549 154.656C113.118 155.117 112.893 155.738 112.872 156.478C112.852 157.219 113.036 157.96 113.467 158.661L118.985 163.548L116.749 165.951L111.436 161.245C110.677 160.564 110 160.203 109.405 160.163C108.81 160.123 108.318 160.304 107.887 160.764C107.456 161.225 107.23 161.825 107.189 162.566C107.148 163.307 107.354 164.028 107.764 164.729L113.323 169.636L111.087 172.039L101.568 163.608L103.579 161.445L105.364 163.007C105.076 162.106 105.056 161.205 105.261 160.303C105.487 159.422 105.959 158.581 106.677 157.8C107.395 157.019 108.154 156.579 108.954 156.499C109.754 156.398 110.492 156.559 111.169 156.939C110.862 155.978 110.821 155.057 111.026 154.155C111.231 153.254 111.682 152.433 112.359 151.692C112.893 151.111 113.446 150.731 114 150.551C114.554 150.37 115.088 150.35 115.642 150.451C116.195 150.571 116.729 150.771 117.242 151.091C117.755 151.412 118.247 151.772 118.719 152.173L124.648 157.42L124.627 157.44Z" fill="#BCFDA0"/>
<path d="M132.073 150.811C131.355 151.492 130.555 151.932 129.694 152.133C128.832 152.333 127.97 152.313 127.129 152.053L132.34 157.36L129.94 159.603L117.385 146.826L119.477 144.863L121.016 146.425C120.852 145.564 120.893 144.723 121.139 143.902C121.385 143.081 121.857 142.34 122.575 141.679C123.211 141.078 123.908 140.658 124.668 140.417C125.427 140.177 126.227 140.057 127.047 140.137C127.868 140.197 128.668 140.397 129.427 140.758C130.207 141.118 130.904 141.599 131.54 142.26C132.402 143.141 132.997 144.102 133.345 145.144C133.694 146.185 133.776 147.206 133.571 148.208C133.366 149.209 132.873 150.07 132.073 150.831V150.811ZM129.304 149.569C129.673 149.229 129.94 148.828 130.083 148.408C130.227 147.987 130.289 147.527 130.268 147.066C130.248 146.605 130.124 146.165 129.919 145.724C129.714 145.284 129.427 144.903 129.099 144.543C128.729 144.162 128.319 143.882 127.888 143.682C127.458 143.481 126.986 143.361 126.514 143.341C126.042 143.321 125.57 143.381 125.119 143.541C124.668 143.702 124.257 143.962 123.888 144.302C123.662 144.523 123.478 144.763 123.314 145.063C123.149 145.364 123.026 145.664 122.944 146.005C122.862 146.345 122.842 146.666 122.842 147.006C122.842 147.346 122.944 147.647 123.088 147.927L125.18 150.05C125.652 150.25 126.145 150.37 126.657 150.41C127.17 150.451 127.663 150.41 128.135 150.25C128.606 150.11 129.017 149.87 129.345 149.549L129.304 149.569Z" fill="#BCFDA0"/>
<path d="M125.488 132.407L127.991 130.264L137.202 140.518C137.592 140.958 137.941 141.178 138.228 141.219C138.515 141.239 138.782 141.138 139.049 140.918C139.254 140.758 139.438 140.558 139.603 140.317C139.767 140.097 139.91 139.877 139.992 139.656L142.003 141.219C141.818 141.659 141.531 142.12 141.162 142.58C140.792 143.041 140.423 143.441 140.074 143.742C139.295 144.403 138.515 144.723 137.715 144.683C136.915 144.643 136.177 144.242 135.5 143.502L125.529 132.407H125.488Z" fill="#BCFDA0"/>
<path d="M133.715 129.704L131.602 127.24L134.145 125.178L136.258 127.641L133.715 129.704ZM143.172 140.798L134.863 131.065L137.407 128.983L145.716 138.736L143.172 140.798Z" fill="#BCFDA0"/>
<path d="M148.486 136.532L142.455 129.043L141.101 130.064L139.541 128.121L140.895 127.1L140.403 126.499C139.747 125.678 139.316 124.857 139.111 124.036C138.905 123.215 138.926 122.454 139.172 121.733C139.418 121.012 139.89 120.391 140.567 119.851C140.977 119.53 141.449 119.27 141.942 119.05C142.455 118.829 142.988 118.649 143.542 118.529L144.568 120.852C144.301 120.892 143.993 120.992 143.685 121.112C143.378 121.232 143.09 121.393 142.865 121.573C142.413 121.913 142.208 122.314 142.208 122.814C142.208 123.295 142.455 123.836 142.926 124.417L143.501 125.117L146.004 123.215L147.563 125.158L145.06 127.06L151.091 134.55L148.486 136.552V136.532Z" fill="#BCFDA0"/>
<path d="M156.467 133.568C156.755 133.448 157.001 133.348 157.247 133.228C157.493 133.128 157.678 133.008 157.821 132.907C158.068 132.727 158.232 132.527 158.314 132.287C158.396 132.046 158.396 131.706 158.314 131.285C158.252 130.865 158.088 130.304 157.842 129.603L146.148 122.314L148.938 120.351L157.329 125.898L154.252 116.606L156.816 114.804L161.432 130.144C161.596 130.705 161.658 131.305 161.617 131.906C161.576 132.507 161.37 133.088 161.042 133.648C160.714 134.209 160.242 134.69 159.647 135.13C159.442 135.291 159.216 135.411 158.97 135.531C158.724 135.651 158.457 135.751 158.15 135.851L156.467 133.568Z" fill="#BCFDA0"/>
<path d="M157.451 112.201L155.625 109.537L158.395 107.735L160.22 110.418L157.451 112.221V112.201ZM165.677 124.216L158.456 113.683L161.226 111.88L168.447 122.414L165.677 124.216Z" fill="#BCFDA0"/>
<path d="M180.92 114.744L178.089 116.446L174.314 110.478C173.781 109.617 173.227 109.097 172.673 108.896C172.119 108.696 171.565 108.756 171.011 109.077C170.642 109.297 170.314 109.637 170.047 110.058C169.78 110.478 169.596 110.939 169.493 111.46C169.391 111.98 169.411 112.481 169.534 113.002L173.473 119.23L170.642 120.932L163.893 110.238L166.436 108.696L167.688 110.699C167.688 110.058 167.79 109.457 168.016 108.876C168.242 108.296 168.59 107.755 169.062 107.234C169.534 106.713 170.068 106.273 170.704 105.892C171.401 105.472 172.037 105.252 172.632 105.231C173.227 105.211 173.76 105.312 174.253 105.572C174.745 105.832 175.176 106.193 175.586 106.633C175.996 107.074 176.366 107.555 176.694 108.075L180.899 114.724L180.92 114.744Z" fill="#BCFDA0"/>
<path d="M187.587 111.379C186.828 111.78 186.069 112 185.269 112.06C184.469 112.1 183.71 111.98 182.951 111.7C182.192 111.42 181.515 110.999 180.879 110.458C180.243 109.918 179.73 109.257 179.299 108.496C178.848 107.695 178.561 106.874 178.417 106.032C178.294 105.191 178.314 104.39 178.479 103.609C178.643 102.828 178.971 102.127 179.463 101.487C179.956 100.846 180.571 100.325 181.351 99.9044C182.233 99.4238 183.115 99.2035 183.997 99.2436C184.879 99.2836 185.72 99.4839 186.52 99.9044L185.433 97.9619L187.977 96.6001L193.885 107.114C194.501 108.215 194.747 109.297 194.644 110.358C194.542 111.42 194.131 112.421 193.393 113.342C192.675 114.263 191.69 115.064 190.48 115.705C189.249 116.366 188.1 116.726 187.013 116.767C185.925 116.827 184.879 116.646 183.853 116.226L184.592 113.863C185.31 114.163 186.09 114.263 186.931 114.223C187.751 114.163 188.531 113.943 189.269 113.542C189.885 113.202 190.398 112.801 190.808 112.321C191.198 111.84 191.444 111.299 191.505 110.699C191.567 110.098 191.403 109.457 191.013 108.756L190.234 107.354C190.213 108.195 189.946 108.976 189.454 109.677C188.962 110.398 188.326 110.959 187.567 111.359L187.587 111.379ZM187.279 108.596C187.587 108.436 187.874 108.215 188.1 107.955C188.326 107.695 188.531 107.414 188.674 107.114C188.818 106.813 188.921 106.493 188.982 106.153C189.044 105.812 189.044 105.512 189.023 105.211L187.526 102.548C187.095 102.207 186.643 101.947 186.151 101.787C185.659 101.627 185.166 101.567 184.695 101.587C184.202 101.607 183.751 101.747 183.341 101.967C182.889 102.207 182.54 102.508 182.274 102.888C182.007 103.269 181.843 103.689 181.781 104.17C181.72 104.651 181.72 105.111 181.802 105.592C181.884 106.073 182.069 106.533 182.315 106.974C182.561 107.434 182.889 107.815 183.279 108.115C183.669 108.436 184.079 108.656 184.53 108.796C184.982 108.936 185.454 108.996 185.925 108.956C186.397 108.916 186.869 108.796 187.3 108.556L187.279 108.596Z" fill="#BCFDA0"/>
<path d="M201.907 103.809L194.521 88.229L197.619 86.8271L203.753 99.7641L211.898 96.0793L213.149 98.7428L201.907 103.829V103.809Z" fill="#BCFDA0"/>
<path d="M208.779 84.9248L207.486 81.9609L210.543 80.6992L211.835 83.6631L208.779 84.9248ZM214.564 98.2222L209.497 86.5469L212.553 85.2852L217.621 96.9606L214.564 98.2222Z" fill="#BCFDA0"/>
<path d="M220.944 95.6191L217.354 86.7674L215.775 87.3883L214.852 85.0852L216.431 84.4644L216.144 83.7435C215.754 82.7622 215.57 81.861 215.611 81.0199C215.652 80.1788 215.898 79.4579 216.349 78.8171C216.8 78.1962 217.436 77.7156 218.237 77.4152C218.729 77.235 219.242 77.0948 219.796 77.0147C220.35 76.9346 220.903 76.9145 221.498 76.9546L221.806 79.4579C221.519 79.4178 221.211 79.4379 220.883 79.4579C220.555 79.4779 220.226 79.558 219.96 79.6782C219.447 79.8784 219.119 80.2189 218.975 80.6795C218.831 81.1401 218.913 81.7208 219.201 82.4218L219.549 83.2629L222.504 82.1214L223.427 84.4244L220.473 85.5659L224.063 94.4175L220.985 95.6191H220.944Z" fill="#BCFDA0"/>
<path d="M234.013 91.0529C233.029 91.3933 232.085 91.5335 231.182 91.4934C230.28 91.4534 229.439 91.2331 228.659 90.8726C227.9 90.5121 227.223 90.0115 226.649 89.3907C226.074 88.7699 225.643 88.0489 225.356 87.2479C224.946 86.1264 224.823 85.005 225.007 83.8835C225.192 82.762 225.664 81.7607 226.423 80.8595C227.182 79.9583 228.228 79.2774 229.562 78.8168C230.895 78.3562 232.147 78.2361 233.295 78.4764C234.444 78.7167 235.45 79.1973 236.291 79.9583C237.132 80.7193 237.747 81.6205 238.137 82.6819C238.199 82.8621 238.26 83.0424 238.322 83.2426C238.383 83.4429 238.404 83.6031 238.445 83.7233L228.987 87.0076C229.275 87.5883 229.644 88.0289 230.095 88.3693C230.567 88.7098 231.08 88.9101 231.634 88.9701C232.188 89.0302 232.742 88.9701 233.295 88.7899C233.911 88.5696 234.444 88.2292 234.896 87.7285C235.347 87.2479 235.573 86.7272 235.593 86.1665L238.547 85.9662C238.465 86.6871 238.24 87.368 237.87 88.0289C237.481 88.6898 236.968 89.2906 236.332 89.8112C235.675 90.3319 234.896 90.7525 233.993 91.0729L234.013 91.0529ZM228.228 85.065L234.629 82.8421C234.342 82.2613 233.993 81.8208 233.542 81.4803C233.09 81.1399 232.598 80.9396 232.044 80.8395C231.49 80.7594 230.916 80.8195 230.341 81.0197C229.787 81.22 229.316 81.5204 228.946 81.9209C228.577 82.3214 228.331 82.8021 228.208 83.3428C228.085 83.8835 228.085 84.4642 228.249 85.065H228.228Z" fill="#BCFDA0"/>
<path d="M250.342 76.7744C250.486 77.215 250.486 77.6555 250.383 78.0961C250.281 78.5367 250.055 78.9172 249.747 79.2376C249.439 79.558 249.05 79.7983 248.578 79.9185C248.126 80.0386 247.696 80.0587 247.265 79.9385C246.834 79.8384 246.444 79.6181 246.096 79.3177C245.747 79.0173 245.521 78.6368 245.378 78.1962C245.254 77.7556 245.234 77.3351 245.378 76.8945C245.521 76.454 245.706 76.0935 246.013 75.753C246.321 75.4126 246.69 75.1923 247.142 75.0721C247.593 74.932 248.044 74.932 248.496 75.0521C248.947 75.1723 249.337 75.3725 249.665 75.6729C249.993 75.9733 250.24 76.3338 250.363 76.7744H250.342Z" fill="#BCFDA0"/>
<path d="M272.91 76.8342L273.607 79.6779L261.729 82.4616L257.605 65.7597L269.258 63.0161L269.955 65.8598L261.626 67.8224L262.611 71.8477L269.812 70.1455L270.468 72.7689L263.268 74.4711L264.334 78.8168L272.889 76.8142L272.91 76.8342Z" fill="#BCFDA0"/>
<path d="M287.332 77.0345L284.07 77.6553L282.696 70.7863C282.491 69.805 282.183 69.1241 281.732 68.7436C281.28 68.3631 280.747 68.2229 280.111 68.3431C279.68 68.4232 279.249 68.6234 278.859 68.9238C278.449 69.2242 278.121 69.6047 277.834 70.0453C277.546 70.4859 277.382 70.9865 277.321 71.5072L278.757 78.6966L275.495 79.3175L273.033 67.0013L275.967 66.4406L276.418 68.7436C276.644 68.1428 276.952 67.6221 277.382 67.1615C277.813 66.7009 278.326 66.3004 278.941 65.98C279.557 65.6596 280.234 65.4192 280.952 65.279C281.752 65.1188 282.429 65.1389 282.983 65.3191C283.557 65.4993 284.009 65.7797 284.378 66.2003C284.747 66.6008 285.034 67.1014 285.26 67.6622C285.486 68.2229 285.65 68.8037 285.773 69.3844L287.312 77.0545L287.332 77.0345Z" fill="#BCFDA0"/>
<path d="M301.734 74.8516L298.451 75.3323L297.384 68.4032C297.241 67.4419 296.933 66.761 296.482 66.3405C296.03 65.9199 295.456 65.7597 294.799 65.8599C294.41 65.9199 293.999 66.0801 293.61 66.3805C293.199 66.6609 292.851 67.0214 292.563 67.4619C292.276 67.9025 292.092 68.3831 291.989 68.9038L293.117 76.1333L289.835 76.6139L287.127 59.1511L290.409 58.6704L291.558 66.0401C291.907 65.179 292.461 64.478 293.199 63.9173C293.938 63.3566 294.799 62.9961 295.764 62.8559C296.605 62.7358 297.302 62.7758 297.856 62.9761C298.431 63.1763 298.882 63.4767 299.251 63.8973C299.62 64.3178 299.908 64.7985 300.113 65.3592C300.318 65.9199 300.462 66.5007 300.564 67.1215L301.754 74.8516H301.734Z" fill="#BCFDA0"/>
<path d="M302.963 70.9663C302.881 70.1652 303.024 69.4243 303.435 68.7634C303.845 68.1025 304.44 67.5618 305.24 67.1413C306.04 66.7207 306.984 66.4604 308.071 66.3402C308.605 66.2801 309.158 66.2601 309.733 66.2801C310.307 66.3002 310.8 66.3803 311.23 66.5004L311.148 65.8396C311.066 65.0585 310.759 64.4778 310.225 64.0973C309.692 63.7168 308.953 63.5966 308.01 63.6968C307.312 63.7769 306.635 63.9571 306.04 64.2775C305.425 64.5779 304.789 65.0185 304.132 65.5592L302.84 63.5566C303.64 62.9157 304.461 62.4151 305.322 62.0546C306.184 61.6941 307.107 61.4538 308.092 61.3537C309.938 61.1534 311.415 61.4538 312.543 62.2348C313.672 63.0159 314.328 64.2175 314.513 65.8596L314.944 69.8248C314.985 70.1652 315.067 70.3855 315.21 70.5257C315.354 70.6459 315.559 70.726 315.846 70.726L316.133 73.3494C315.846 73.4295 315.58 73.4896 315.354 73.5497C315.128 73.6098 314.923 73.6498 314.759 73.6698C314.102 73.7499 313.59 73.6498 313.22 73.3895C312.851 73.1291 312.605 72.8087 312.482 72.3881L312.338 71.7473C311.866 72.5083 311.23 73.1291 310.43 73.6098C309.63 74.0904 308.81 74.3707 307.928 74.4509C307.066 74.551 306.286 74.4508 305.568 74.1905C304.85 73.9302 304.255 73.5096 303.804 72.9689C303.353 72.4282 303.086 71.7674 303.004 71.0264L302.963 70.9663ZM311.066 70.726C311.23 70.5257 311.354 70.3054 311.456 70.1252C311.559 69.9249 311.579 69.7447 311.579 69.5845L311.436 68.3428C311.025 68.2227 310.574 68.1426 310.123 68.1225C309.651 68.0825 309.22 68.0825 308.81 68.1225C307.948 68.2027 307.271 68.463 306.758 68.8635C306.245 69.2841 306.02 69.7647 306.081 70.3455C306.122 70.6659 306.245 70.9463 306.45 71.2066C306.656 71.4669 306.943 71.6672 307.312 71.8074C307.681 71.9476 308.092 71.9876 308.564 71.9276C309.056 71.8675 309.528 71.7273 309.979 71.507C310.43 71.2867 310.8 71.0063 311.066 70.726Z" fill="#BCFDA0"/>
<path d="M330.022 72.3684L326.719 72.5887L326.247 65.5995C326.186 64.5982 325.94 63.8773 325.55 63.4367C325.16 62.9961 324.647 62.7958 323.991 62.8359C323.539 62.8559 323.108 62.9961 322.657 63.2565C322.206 63.5168 321.837 63.8372 321.488 64.2377C321.16 64.6382 320.913 65.0989 320.79 65.6195L321.283 72.9291L317.98 73.1494L317.139 60.633L320.134 60.4327L320.298 62.7758C320.585 62.2151 320.975 61.7345 321.467 61.3139C321.96 60.8934 322.514 60.593 323.17 60.3326C323.827 60.0923 324.524 59.9521 325.263 59.892C326.063 59.832 326.74 59.9321 327.273 60.1724C327.806 60.4127 328.237 60.7732 328.545 61.2138C328.853 61.6543 329.078 62.175 329.222 62.7558C329.366 63.3366 329.468 63.9373 329.509 64.5381L330.043 72.3484L330.022 72.3684Z" fill="#BCFDA0"/>
<path d="M338.598 72.3685C337.552 72.3885 336.588 72.2483 335.747 71.9079C334.906 71.5674 334.167 71.1269 333.552 70.5261C332.936 69.9253 332.464 69.2444 332.136 68.4633C331.787 67.6823 331.623 66.8813 331.603 66.0202C331.582 64.8386 331.828 63.7572 332.362 62.7559C332.895 61.7546 333.654 60.9535 334.68 60.3527C335.685 59.7319 336.896 59.4115 338.291 59.3915C339.686 59.3514 340.916 59.6318 341.922 60.2125C342.947 60.7933 343.707 61.5543 344.24 62.5156L341.019 63.5569C340.732 63.0963 340.342 62.7358 339.87 62.4955C339.398 62.2552 338.886 62.1351 338.332 62.1551C337.696 62.1551 337.142 62.3353 336.629 62.6557C336.116 62.9762 335.726 63.4167 335.439 63.9975C335.152 64.5582 335.029 65.2191 335.049 65.9601C335.049 66.681 335.234 67.3219 335.562 67.8826C335.87 68.4433 336.301 68.8639 336.814 69.1843C337.326 69.5047 337.901 69.6449 338.537 69.6249C338.927 69.6249 339.316 69.5448 339.665 69.4046C340.014 69.2644 340.322 69.0842 340.609 68.8438C340.896 68.6035 341.081 68.3432 341.204 68.0628L344.466 68.964C344.178 69.6048 343.768 70.1656 343.214 70.6863C342.66 71.2069 342.004 71.6075 341.245 71.9079C340.486 72.2083 339.624 72.3685 338.66 72.3885L338.598 72.3685Z" fill="#BCFDA0"/>
<path d="M346.25 72.0679L346.353 59.3913H349.676L349.573 72.088H346.25V72.0679ZM346.373 57.629V54.4048L349.717 54.4248V57.649L346.373 57.629Z" fill="#BCFDA0"/>
<path d="M364.345 72.5688L361.022 72.4286L361.309 65.4195C361.35 64.4181 361.206 63.6772 360.857 63.2166C360.509 62.7359 360.016 62.4956 359.38 62.4556C358.929 62.4556 358.478 62.5357 358.006 62.7359C357.534 62.9362 357.124 63.2166 356.734 63.5971C356.365 63.9776 356.077 64.3981 355.893 64.8988L355.585 72.2084L352.262 72.0682L352.795 59.5317L355.79 59.6519L355.688 61.995C356.036 61.4743 356.488 61.0337 357.001 60.6732C357.534 60.3127 358.129 60.0524 358.806 59.8922C359.483 59.712 360.201 59.6519 360.939 59.6719C361.74 59.712 362.396 59.8722 362.909 60.1726C363.422 60.473 363.791 60.8535 364.058 61.3341C364.304 61.8147 364.489 62.3554 364.571 62.9562C364.653 63.557 364.673 64.1578 364.653 64.7586L364.324 72.5688H364.345Z" fill="#BCFDA0"/>
<path d="M371.853 73.4097C370.991 73.3296 370.232 73.0893 369.534 72.7088C368.857 72.3082 368.283 71.8076 367.811 71.1667C367.339 70.5259 367.011 69.805 366.806 69.0039C366.601 68.2029 366.539 67.3818 366.621 66.5006C366.703 65.5794 366.929 64.7383 367.298 63.9773C367.668 63.2163 368.139 62.5554 368.734 61.9947C369.329 61.434 370.006 61.0335 370.765 60.7731C371.524 60.5128 372.345 60.4126 373.248 60.4927C374.253 60.5729 375.114 60.8732 375.832 61.3739C376.551 61.8746 377.125 62.5154 377.535 63.2964L377.74 61.0735L380.633 61.3338L379.525 73.2695C379.402 74.5111 378.992 75.5525 378.294 76.3736C377.597 77.1947 376.674 77.8155 375.545 78.1759C374.417 78.5564 373.166 78.6766 371.771 78.5564C370.376 78.4363 369.206 78.0958 368.283 77.5551C367.36 77.0144 366.58 76.2935 365.965 75.3923L367.934 73.8502C368.365 74.4911 368.94 75.0118 369.658 75.4123C370.376 75.8128 371.155 76.0531 371.996 76.1332C372.694 76.1933 373.35 76.1332 373.966 75.953C374.581 75.7728 375.073 75.4524 375.484 74.9918C375.894 74.5312 376.12 73.9103 376.202 73.1093L376.345 71.5272C375.853 72.2081 375.197 72.7088 374.376 73.0492C373.555 73.3696 372.714 73.4898 371.832 73.4097H371.853ZM373.207 70.9264C373.576 70.9665 373.925 70.9264 374.253 70.8463C374.602 70.7662 374.909 70.646 375.217 70.4658C375.525 70.2856 375.791 70.0853 376.017 69.845C376.243 69.6047 376.448 69.3444 376.592 69.084L376.879 66.06C376.735 65.5394 376.489 65.0787 376.181 64.6782C375.853 64.2777 375.504 63.9573 375.073 63.717C374.663 63.4767 374.212 63.3365 373.74 63.2964C373.227 63.2564 372.755 63.2964 372.324 63.4967C371.894 63.6969 371.504 63.9373 371.176 64.2777C370.847 64.6382 370.581 65.0387 370.376 65.4793C370.17 65.9199 370.047 66.4005 370.006 66.9011C369.965 67.4218 370.006 67.9025 370.15 68.3831C370.293 68.8637 370.499 69.2642 370.786 69.6247C371.073 69.9852 371.422 70.2856 371.853 70.5259C372.263 70.7662 372.735 70.8864 373.227 70.9464L373.207 70.9264Z" fill="#BCFDA0"/>
<path d="M388.428 66.12C388.612 65.0787 388.982 64.0974 389.536 63.1762C390.09 62.255 390.808 61.4339 391.669 60.733C392.531 60.0321 393.557 59.5314 394.685 59.211C395.834 58.9106 397.065 58.8505 398.419 59.0708C400.019 59.3312 401.332 59.9119 402.378 60.773C403.424 61.6542 404.142 62.6755 404.511 63.8771L401.619 65.1989C401.434 64.518 401.147 63.9372 400.737 63.4966C400.326 63.036 399.875 62.6956 399.362 62.4552C398.849 62.2149 398.336 62.0547 397.824 61.9746C396.982 61.8344 396.203 61.8745 395.526 62.1148C394.849 62.3551 394.234 62.6956 393.721 63.1762C393.208 63.6568 392.777 64.1975 392.469 64.8384C392.141 65.4792 391.936 66.1201 391.813 66.7809C391.69 67.5219 391.69 68.2629 391.813 69.0038C391.936 69.7448 392.182 70.4057 392.531 71.0065C392.88 71.6072 393.351 72.1279 393.926 72.5285C394.5 72.949 395.157 73.2094 395.916 73.3295C396.449 73.4096 397.003 73.4296 397.598 73.3295C398.193 73.2294 398.747 73.0491 399.28 72.7487C399.814 72.4483 400.265 72.0078 400.634 71.447L403.116 73.4497C402.624 74.2307 401.947 74.8515 401.065 75.3121C400.183 75.7727 399.239 76.0731 398.234 76.2133C397.229 76.3535 396.244 76.3535 395.3 76.2133C394.069 76.013 392.982 75.5724 392.038 74.9116C391.095 74.2507 390.336 73.4296 389.741 72.4684C389.146 71.5071 388.736 70.4858 388.489 69.3643C388.264 68.2629 388.223 67.1614 388.407 66.1L388.428 66.12Z" fill="#BCFDA0"/>
<path d="M409.641 79.1573C408.615 78.917 407.733 78.5565 406.994 78.0358C406.256 77.5152 405.661 76.8943 405.23 76.1734C404.799 75.4524 404.512 74.6714 404.389 73.8503C404.266 73.0293 404.307 72.1882 404.491 71.3471C404.696 70.4859 405.045 69.725 405.517 69.024C406.009 68.3231 406.604 67.7624 407.302 67.3018C408.02 66.8412 408.82 66.5408 409.723 66.3806C410.625 66.2203 411.589 66.2804 412.615 66.5007C413.641 66.741 414.523 67.1015 415.262 67.6222C416 68.1429 416.575 68.7637 417.026 69.4846C417.457 70.2056 417.744 70.9866 417.867 71.8077C417.99 72.6288 417.949 73.4699 417.744 74.331C417.539 75.1721 417.211 75.9331 416.739 76.634C416.267 77.3349 415.672 77.9157 414.954 78.3763C414.236 78.8369 413.436 79.1373 412.533 79.2975C411.63 79.4577 410.666 79.3976 409.641 79.1773V79.1573ZM407.815 72.1081C407.651 72.809 407.651 73.4699 407.815 74.0907C407.979 74.7115 408.266 75.2121 408.697 75.6327C409.128 76.0532 409.641 76.3336 410.277 76.4738C410.892 76.614 411.487 76.5739 412.061 76.3737C412.636 76.1734 413.128 75.8329 413.559 75.3523C413.99 74.8717 414.277 74.2709 414.441 73.57C414.605 72.8691 414.605 72.2282 414.441 71.5874C414.277 70.9466 413.969 70.4459 413.559 70.0253C413.149 69.6048 412.615 69.3244 412 69.1842C411.364 69.044 410.769 69.0641 410.194 69.2844C409.62 69.4846 409.128 69.8251 408.697 70.3057C408.266 70.7863 407.979 71.3871 407.815 72.088V72.1081Z" fill="#BCFDA0"/>
<path d="M429.519 84.2039L426.339 83.2827L428.37 76.5539C428.657 75.5926 428.698 74.8516 428.493 74.2909C428.288 73.7502 427.857 73.3897 427.241 73.2095C426.811 73.0893 426.359 73.0693 425.846 73.1494C425.354 73.2295 424.862 73.4097 424.41 73.6901C423.959 73.9504 423.569 74.3109 423.262 74.7515L421.149 81.7607L417.969 80.8395L421.6 68.8037L424.472 69.6248L423.795 71.8677C424.267 71.4472 424.8 71.1067 425.395 70.9064C425.99 70.7062 426.647 70.586 427.344 70.566C428.042 70.566 428.76 70.6661 429.457 70.8664C430.237 71.0867 430.832 71.4071 431.242 71.8277C431.652 72.2482 431.939 72.7088 432.062 73.2295C432.186 73.7502 432.227 74.3109 432.144 74.9117C432.083 75.5125 431.96 76.0933 431.775 76.674L429.498 84.1638L429.519 84.2039Z" fill="#BCFDA0"/>
</svg>
