<svg width="49" height="58" viewBox="0 0 49 58" fill="none" xmlns="http://www.w3.org/2000/svg">
<path d="M15.5303 45.8621C16.0162 44.0934 16.6582 42.3121 17.0528 40.5822C17.6976 37.6686 17.2617 34.9997 15.3413 32.6395C13.7063 30.6964 12.0189 28.8834 10.2927 26.9791C9.7736 26.3922 9.16328 25.8442 8.64416 25.2573C8.22886 24.7877 8.08713 24.2018 8.51783 23.6953C8.80496 23.3576 9.36475 23.2809 9.82071 23.0868C9.9119 23.048 10.0419 23.1004 10.1719 23.1527C15.7264 24.1814 20.5072 22.254 24.6281 18.7763C28.2533 15.7789 31.567 12.4294 35.0234 9.28844C35.5191 8.80813 36.0148 8.32782 36.5231 8.00371C36.8229 7.82225 37.4476 7.77172 37.7465 7.96766C38.0453 8.1636 38.2782 8.71075 38.1861 9.12697C38.159 9.56938 37.8845 10.0632 37.6362 10.4921C37.1396 11.3498 36.643 12.2075 36.0552 13.104C33.7301 16.6251 33.0175 20.6447 32.305 24.6643C32.0403 26.4466 32.5441 28.0095 33.66 29.3656C35.0873 31.0739 36.7106 32.4834 38.5425 33.7502C39.1402 34.1421 40.0503 34.5087 39.7225 35.51C39.3685 36.5763 38.3537 36.4697 37.56 36.3767C34.1255 35.8998 31.0774 37.0896 28.0933 38.683C25.018 40.3153 22.2668 42.4559 19.996 45.0922C18.7301 46.5467 17.5292 48.0273 16.2895 49.4168C16.0285 49.6894 15.8976 50.0145 15.624 50.1309C15.2331 50.3512 14.5947 50.6229 14.3609 50.4532C14.062 50.2573 14.0115 49.6325 13.9736 49.1639C13.9483 48.8515 14.1443 48.5526 14.2752 48.2276C14.6156 47.3825 14.9561 46.5374 15.2703 45.7574C15.4003 45.8097 15.4653 45.8359 15.5303 45.8621Z" fill="white"/>
</svg>
