<svg width="122" height="95" viewBox="0 0 122 95" fill="none" xmlns="http://www.w3.org/2000/svg">
<g clip-path="url(#clip0_59_1285)">
<path d="M12.6753 0L13.0979 2.89246C13.8108 7.7486 17.6134 11.5698 22.4459 12.2863L25.3243 12.7109L22.4459 13.1355C17.6134 13.852 13.8108 17.6732 13.0979 22.5293L12.6753 25.4218L12.2528 22.5293C11.5398 17.6732 7.73725 13.852 2.90478 13.1355L0.0264282 12.7109L2.90478 12.2863C7.73725 11.5698 11.5398 7.7486 12.2528 2.89246L12.6753 0Z" fill="#FF71AA"/>
<path d="M77.1082 0L77.5307 2.89246C78.2437 7.7486 82.0463 11.5698 86.8788 12.2863L89.7571 12.7109L86.8788 13.1355C82.0463 13.852 78.2437 17.6732 77.5307 22.5293L77.1082 25.4218L76.6857 22.5293C75.9727 17.6732 72.1701 13.852 67.3376 13.1355L64.4593 12.7109L67.3376 12.2863C72.1701 11.5698 75.9727 7.7486 76.6857 2.89246L77.1082 0Z" fill="#FF71AA"/>
<path d="M44.8918 0L45.3143 2.89246C46.0273 7.7486 49.8299 11.5698 54.6623 12.2863L57.5407 12.7109L54.6623 13.1355C49.8299 13.852 46.0273 17.6732 45.3143 22.5293L44.8918 25.4218L44.4693 22.5293C43.7563 17.6732 39.9537 13.852 35.1212 13.1355L32.2429 12.7109L35.1212 12.2863C39.9537 11.5698 43.7563 7.7486 44.4693 2.89246L44.8918 0Z" fill="#FF71AA"/>
<path d="M109.325 0L109.747 2.89246C110.46 7.7486 114.263 11.5698 119.095 12.2863L121.974 12.7109L119.095 13.1355C114.263 13.852 110.46 17.6732 109.747 22.5293L109.325 25.4218L108.902 22.5293C108.189 17.6732 104.387 13.852 99.5541 13.1355L96.6758 12.7109L99.5541 12.2863C104.387 11.5698 108.189 7.7486 108.902 2.89246L109.325 0Z" fill="#FF71AA"/>
<path d="M12.6753 34.6299L13.0979 37.5223C13.8108 42.3785 17.6134 46.1997 22.4459 46.9162L25.3243 47.3408L22.4459 47.7654C17.6134 48.4818 13.8108 52.3031 13.0979 57.1592L12.6753 60.0517L12.2528 57.1592C11.5398 52.3031 7.73725 48.4818 2.90478 47.7654L0.0264282 47.3408L2.90478 46.9162C7.73725 46.1997 11.5398 42.3785 12.2528 37.5223L12.6753 34.6299Z" fill="#FF71AA"/>
<path d="M77.1082 34.6299L77.5307 37.5223C78.2437 42.3785 82.0463 46.1997 86.8788 46.9162L89.7571 47.3408L86.8788 47.7654C82.0463 48.4818 78.2437 52.3031 77.5307 57.1592L77.1082 60.0517L76.6857 57.1592C75.9727 52.3031 72.1701 48.4818 67.3376 47.7654L64.4593 47.3408L67.3376 46.9162C72.1701 46.1997 75.9727 42.3785 76.6857 37.5223L77.1082 34.6299Z" fill="#FF71AA"/>
<path d="M12.6753 69.3926L13.0979 72.285C13.8108 77.1412 17.6134 80.9624 22.4459 81.6789L25.3243 82.1035L22.4459 82.5281C17.6134 83.2445 13.8108 87.0658 13.0979 91.9219L12.6753 94.8144L12.2528 91.9219C11.5398 87.0658 7.73725 83.2445 2.90478 82.5281L0.0264282 82.1035L2.90478 81.6789C7.73725 80.9624 11.5398 77.1412 12.2528 72.285L12.6753 69.3926Z" fill="#FF71AA"/>
<path d="M77.1082 69.3926L77.5307 72.285C78.2437 77.1412 82.0463 80.9624 86.8788 81.6789L89.7571 82.1035L86.8788 82.5281C82.0463 83.2445 78.2437 87.0658 77.5307 91.9219L77.1082 94.8144L76.6857 91.9219C75.9727 87.0658 72.1701 83.2445 67.3376 82.5281L64.4593 82.1035L67.3376 81.6789C72.1701 80.9624 75.9727 77.1412 76.6857 72.285L77.1082 69.3926Z" fill="#FF71AA"/>
<path d="M44.8918 34.6299L45.3143 37.5223C46.0273 42.3785 49.8299 46.1997 54.6623 46.9162L57.5407 47.3408L54.6623 47.7654C49.8299 48.4818 46.0273 52.3031 45.3143 57.1592L44.8918 60.0517L44.4693 57.1592C43.7563 52.3031 39.9537 48.4818 35.1212 47.7654L32.2429 47.3408L35.1212 46.9162C39.9537 46.1997 43.7563 42.3785 44.4693 37.5223L44.8918 34.6299Z" fill="#FF71AA"/>
<path d="M109.325 34.6299L109.747 37.5223C110.46 42.3785 114.263 46.1997 119.095 46.9162L121.974 47.3408L119.095 47.7654C114.263 48.4818 110.46 52.3031 109.747 57.1592L109.325 60.0517L108.902 57.1592C108.189 52.3031 104.387 48.4818 99.5541 47.7654L96.6758 47.3408L99.5541 46.9162C104.387 46.1997 108.189 42.3785 108.902 37.5223L109.325 34.6299Z" fill="#FF71AA"/>
<path d="M44.8918 69.3926L45.3143 72.285C46.0273 77.1412 49.8299 80.9624 54.6623 81.6789L57.5407 82.1035L54.6623 82.5281C49.8299 83.2445 46.0273 87.0658 45.3143 91.9219L44.8918 94.8144L44.4693 91.9219C43.7563 87.0658 39.9537 83.2445 35.1212 82.5281L32.2429 82.1035L35.1212 81.6789C39.9537 80.9624 43.7563 77.1412 44.4693 72.285L44.8918 69.3926Z" fill="#FF71AA"/>
<path d="M109.325 69.3926L109.747 72.285C110.46 77.1412 114.263 80.9624 119.095 81.6789L121.974 82.1035L119.095 82.5281C114.263 83.2445 110.46 87.0658 109.747 91.9219L109.325 94.8144L108.902 91.9219C108.189 87.0658 104.387 83.2445 99.5541 82.5281L96.6758 82.1035L99.5541 81.6789C104.387 80.9624 108.189 77.1412 108.902 72.285L109.325 69.3926Z" fill="#FF71AA"/>
</g>
<defs>
<clipPath id="clip0_59_1285">
<rect width="122" height="95" fill="white"/>
</clipPath>
</defs>
</svg>
