<svg width="462" height="42" viewBox="0 0 462 42" fill="none" xmlns="http://www.w3.org/2000/svg">
<g clip-path="url(#clip0_59_1270)">
<path d="M48 0.316162L49.6 11.2162C52.3 29.5162 66.7 43.9162 85 46.6162L95.9 48.2162L85 49.8162C66.7 52.5162 52.3 66.9162 49.6 85.2162L48 96.1162L46.4 85.2162C43.7 66.9162 29.3 52.5162 11 49.8162L0.0999756 48.2162L11 46.6162C29.3 43.9162 43.7 29.5162 46.4 11.2162L48 0.316162Z" fill="#FF71AA"/>
<path d="M292 0.316162L293.6 11.2162C296.3 29.5162 310.7 43.9162 329 46.6162L339.9 48.2162L329 49.8162C310.7 52.5162 296.3 66.9162 293.6 85.2162L292 96.1162L290.4 85.2162C287.7 66.9162 273.3 52.5162 255 49.8162L244.1 48.2162L255 46.6162C273.3 43.9162 287.7 29.5162 290.4 11.2162L292 0.316162Z" fill="#FF71AA"/>
<path d="M170 0.316162L171.6 11.2162C174.3 29.5162 188.7 43.9162 207 46.6162L217.9 48.2162L207 49.8162C188.7 52.5162 174.3 66.9162 171.6 85.2162L170 96.1162L168.4 85.2162C165.7 66.9162 151.3 52.5162 133 49.8162L122.1 48.2162L133 46.6162C151.3 43.9162 165.7 29.5162 168.4 11.2162L170 0.316162Z" fill="#FF71AA"/>
<path d="M414 0.316162L415.6 11.2162C418.3 29.5162 432.7 43.9162 451 46.6162L461.9 48.2162L451 49.8162C432.7 52.5162 418.3 66.9162 415.6 85.2162L414 96.1162L412.4 85.2162C409.7 66.9162 395.3 52.5162 377 49.8162L366.1 48.2162L377 46.6162C395.3 43.9162 409.7 29.5162 412.4 11.2162L414 0.316162Z" fill="#FF71AA"/>
</g>
<defs>
<clipPath id="clip0_59_1270">
<rect width="462" height="358" fill="white" transform="translate(0 0.316162)"/>
</clipPath>
</defs>
</svg>
