<svg width="124" height="97" viewBox="0 0 124 97" fill="none" xmlns="http://www.w3.org/2000/svg">
<g clip-path="url(#clip0_59_1244)">
<path d="M12.8831 0.0541992L13.3126 3.00755C14.0372 7.96593 17.9022 11.8676 22.8139 12.5992L25.7394 13.0327L22.8139 13.4662C17.9022 14.1978 14.0372 18.0995 13.3126 23.0578L12.8831 26.0112L12.4537 23.0578C11.729 18.0995 7.86408 14.1978 2.9524 13.4662L0.0268555 13.0327L2.9524 12.5992C7.86408 11.8676 11.729 7.96593 12.4537 3.00755L12.8831 0.0541992Z" fill="#BCFDA0"/>
<path d="M78.3723 0.0541992L78.8017 3.00755C79.5264 7.96593 83.3913 11.8676 88.303 12.5992L91.2285 13.0327L88.303 13.4662C83.3913 14.1978 79.5264 18.0995 78.8017 23.0578L78.3723 26.0112L77.9428 23.0578C77.2182 18.0995 73.3532 14.1978 68.4415 13.4662L65.516 13.0327L68.4415 12.5992C73.3532 11.8676 77.2182 7.96593 77.9428 3.00755L78.3723 0.0541992Z" fill="#BCFDA0"/>
<path d="M45.6278 0.0541992L46.0572 3.00755C46.7819 7.96593 50.6468 11.8676 55.5585 12.5992L58.484 13.0327L55.5585 13.4662C50.6468 14.1978 46.7819 18.0995 46.0572 23.0578L45.6278 26.0112L45.1983 23.0578C44.4736 18.0995 40.6087 14.1978 35.697 13.4662L32.7715 13.0327L35.697 12.5992C40.6087 11.8676 44.4736 7.96593 45.1983 3.00755L45.6278 0.0541992Z" fill="#BCFDA0"/>
<path d="M111.117 0.0541992L111.546 3.00755C112.271 7.96593 116.136 11.8676 121.048 12.5992L123.973 13.0327L121.048 13.4662C116.136 14.1978 112.271 18.0995 111.546 23.0578L111.117 26.0112L110.687 23.0578C109.963 18.0995 106.098 14.1978 101.186 13.4662L98.2606 13.0327L101.186 12.5992C106.098 11.8676 109.963 7.96593 110.687 3.00755L111.117 0.0541992Z" fill="#BCFDA0"/>
<path d="M12.8831 35.4402L13.3126 38.3935C14.0372 43.3519 17.9022 47.2536 22.8139 47.9852L25.7394 48.4187L22.8139 48.8522C17.9022 49.5838 14.0372 53.4854 13.3126 58.4438L12.8831 61.3972L12.4537 58.4438C11.729 53.4854 7.86408 49.5838 2.9524 48.8522L0.0268555 48.4187L2.9524 47.9852C7.86408 47.2536 11.729 43.3519 12.4537 38.3935L12.8831 35.4402Z" fill="#BCFDA0"/>
<path d="M78.3723 35.4402L78.8017 38.3935C79.5264 43.3519 83.3913 47.2536 88.303 47.9852L91.2285 48.4187L88.303 48.8522C83.3913 49.5838 79.5264 53.4854 78.8017 58.4438L78.3723 61.3972L77.9428 58.4438C77.2182 53.4854 73.3532 49.5838 68.4415 48.8522L65.516 48.4187L68.4415 47.9852C73.3532 47.2536 77.2182 43.3519 77.9428 38.3935L78.3723 35.4402Z" fill="#BCFDA0"/>
<path d="M12.8831 70.9346L13.3126 73.8879C14.0372 78.8463 17.9022 82.748 22.8139 83.4795L25.7394 83.9131L22.8139 84.3466C17.9022 85.0781 14.0372 88.9798 13.3126 93.9382L12.8831 96.8916L12.4537 93.9382C11.729 88.9798 7.86408 85.0781 2.9524 84.3466L0.0268555 83.9131L2.9524 83.4795C7.86408 82.748 11.729 78.8463 12.4537 73.8879L12.8831 70.9346Z" fill="#BCFDA0"/>
<path d="M78.3723 70.9346L78.8017 73.8879C79.5264 78.8463 83.3913 82.748 88.303 83.4795L91.2285 83.9131L88.303 84.3466C83.3913 85.0781 79.5264 88.9798 78.8017 93.9382L78.3723 96.8916L77.9428 93.9382C77.2182 88.9798 73.3532 85.0781 68.4415 84.3466L65.516 83.9131L68.4415 83.4795C73.3532 82.748 77.2182 78.8463 77.9428 73.8879L78.3723 70.9346Z" fill="#BCFDA0"/>
<path d="M45.6278 35.4402L46.0572 38.3935C46.7819 43.3519 50.6468 47.2536 55.5585 47.9852L58.484 48.4187L55.5585 48.8522C50.6468 49.5838 46.7819 53.4854 46.0572 58.4438L45.6278 61.3972L45.1983 58.4438C44.4736 53.4854 40.6087 49.5838 35.697 48.8522L32.7715 48.4187L35.697 47.9852C40.6087 47.2536 44.4736 43.3519 45.1983 38.3935L45.6278 35.4402Z" fill="#BCFDA0"/>
<path d="M111.117 35.4402L111.546 38.3935C112.271 43.3519 116.136 47.2536 121.048 47.9852L123.973 48.4187L121.048 48.8522C116.136 49.5838 112.271 53.4854 111.546 58.4438L111.117 61.3972L110.687 58.4438C109.963 53.4854 106.098 49.5838 101.186 48.8522L98.2606 48.4187L101.186 47.9852C106.098 47.2536 109.963 43.3519 110.687 38.3935L111.117 35.4402Z" fill="#BCFDA0"/>
<path d="M45.6278 70.9346L46.0572 73.8879C46.7819 78.8463 50.6468 82.748 55.5585 83.4795L58.484 83.9131L55.5585 84.3466C50.6468 85.0781 46.7819 88.9798 46.0572 93.9382L45.6278 96.8916L45.1983 93.9382C44.4736 88.9798 40.6087 85.0781 35.697 84.3466L32.7715 83.9131L35.697 83.4795C40.6087 82.748 44.4736 78.8463 45.1983 73.8879L45.6278 70.9346Z" fill="#BCFDA0"/>
<path d="M111.117 70.9346L111.546 73.8879C112.271 78.8463 116.136 82.748 121.048 83.4795L123.973 83.9131L121.048 84.3466C116.136 85.0781 112.271 88.9798 111.546 93.9382L111.117 96.8916L110.687 93.9382C109.963 88.9798 106.098 85.0781 101.186 84.3466L98.2606 83.9131L101.186 83.4795C106.098 82.748 109.963 78.8463 110.687 73.8879L111.117 70.9346Z" fill="#BCFDA0"/>
</g>
<defs>
<clipPath id="clip0_59_1244">
<rect width="124" height="97" fill="white"/>
</clipPath>
</defs>
</svg>
