<svg width="96" height="100" viewBox="0 0 96 100" fill="none" xmlns="http://www.w3.org/2000/svg">
<rect width="96" height="100" rx="48" fill="#FFECF4"/>
<path d="M38.9477 40H57.0511C59.1935 40 60.9302 41.6788 60.9304 43.7497C60.7705 43.7496 60.6078 43.7785 60.4502 43.8394L48.9599 48.2823C48.3433 48.5207 47.6555 48.5207 47.0389 48.2823L35.5486 43.8394C35.391 43.7785 35.2283 43.7496 35.0684 43.7497C35.0685 41.6788 36.8053 40 38.9477 40Z" fill="#D01361"/>
<path d="M35.0684 46.3463V56.25C35.0684 58.3211 36.8052 60 38.9477 60H57.0511C59.1936 60 60.9304 58.3211 60.9304 56.25V46.3463L49.9204 50.6035C48.6872 51.0803 47.3116 51.0803 46.0784 50.6035L35.0684 46.3463Z" fill="#D01361"/>
</svg>
