<svg width="76" height="72" viewBox="0 0 76 72" fill="none" xmlns="http://www.w3.org/2000/svg">
<rect width="76" height="72" rx="16" fill="#FFC72F"/>
<path d="M16 24.476C16 21.236 18.6266 18.6094 21.8666 18.6094L54.1332 18.6094C57.3733 18.6094 59.9999 21.236 59.9999 24.476L59.9999 36.8379C59.9999 48.9881 50.1502 58.8378 37.9999 58.8378C25.8497 58.8378 16 48.9881 16 36.8379L16 24.476Z" fill="white"/>
<path d="M21.7236 33.0667C21.7236 35.5706 22.1446 38.0499 22.9626 40.3632C23.7805 42.6764 24.9795 44.7783 26.4909 46.5488C28.0023 48.3193 29.7966 49.7238 31.7713 50.6819C33.746 51.6401 35.8625 52.1333 38 52.1333C40.1374 52.1333 42.254 51.6401 44.2287 50.6819C46.2034 49.7238 47.9977 48.3193 49.5091 46.5488C51.0205 44.7783 52.2194 42.6764 53.0374 40.3632C53.8554 38.0499 54.2764 35.5706 54.2764 33.0667L48.2238 33.0667C48.2238 34.6395 47.9594 36.1968 47.4456 37.6499C46.9318 39.1029 46.1787 40.4232 45.2293 41.5353C44.2799 42.6474 43.1529 43.5296 41.9125 44.1315C40.6721 44.7334 39.3426 45.0432 38 45.0432C36.6574 45.0432 35.3279 44.7334 34.0875 44.1315C32.8471 43.5296 31.72 42.6475 30.7707 41.5353C29.8213 40.4232 29.0682 39.1029 28.5544 37.6499C28.0406 36.1968 27.7762 34.6395 27.7762 33.0667L21.7236 33.0667Z" fill="#FFC032"/>
</svg>
